<?xml version="1.0" encoding="UTF-8" standalone="no"?>
<svg
   xmlns:dc="http://purl.org/dc/elements/1.1/"
   xmlns:cc="http://creativecommons.org/ns#"
   xmlns:rdf="http://www.w3.org/1999/02/22-rdf-syntax-ns#"
   xmlns:svg="http://www.w3.org/2000/svg"
   xmlns="http://www.w3.org/2000/svg"
   xmlns:sodipodi="http://sodipodi.sourceforge.net/DTD/sodipodi-0.dtd"
   xmlns:inkscape="http://www.inkscape.org/namespaces/inkscape"
   version="1.1"
   id="svg2"
   xml:space="preserve"
   width="5333.3335"
   height="5333.3335"
   viewBox="0 0 5333.3335 5333.3335"
   sodipodi:docname="3400_7_07.eps"><metadata
     id="metadata8"><rdf:RDF><cc:Work
         rdf:about=""><dc:format>image/svg+xml</dc:format><dc:type
           rdf:resource="http://purl.org/dc/dcmitype/StillImage" /></cc:Work></rdf:RDF></metadata><defs
     id="defs6" /><sodipodi:namedview
     pagecolor="#ffffff"
     bordercolor="#666666"
     borderopacity="1"
     objecttolerance="10"
     gridtolerance="10"
     guidetolerance="10"
     inkscape:pageopacity="0"
     inkscape:pageshadow="2"
     inkscape:window-width="640"
     inkscape:window-height="480"
     id="namedview4" /><g
     id="g10"
     inkscape:groupmode="layer"
     inkscape:label="ink_ext_XXXXXX"
     transform="matrix(1.3333333,0,0,-1.3333333,0,5333.3333)"><g
       id="g12"
       transform="scale(0.1)"><path
         d="M 0,0 H 40000 V 40000 H 0 Z"
         style="fill:#450ba0;fill-opacity:0;fill-rule:nonzero;stroke:none"
         id="path14" /><path
         d="m 25763.2,12948.5 -204.9,696.6 -3117.2,10597.5 2833.8,992.2 c 0,0 721.1,-2626.5 1395.1,-5263.7 552,-2161.3 1072.6,-4330.4 1138.8,-5068.7 147,-1638.2 -2045.6,-1953.9 -2045.6,-1953.9"
         style="fill:#ffffff;fill-opacity:1;fill-rule:nonzero;stroke:none"
         id="path16" /><path
         d="m 26751.1,14504.3 c -52.9,612.5 -134.9,1198.8 -230.8,1741.3 182.3,159.4 285.2,393.9 263,641.1 l -2.1,20.2 c -24.1,217.8 -144.3,416.7 -329.9,545.7 -63.7,44.3 -132.7,79 -204.7,103.9 -230,956.6 -463.3,1649.3 -556.6,1912.6 137.1,113.3 415.1,343.3 767.9,635.7 20.7,-80.7 41.3,-161.2 61.9,-242 l -532.1,-383.4 434.8,-1625.5 c 1081.7,-554.5 522.2,-1760.6 522.2,-1760.6 0,0 244.4,-634 170.9,-1148.7 -25.2,-176.6 -176.6,-323.5 -364.5,-440.3"
         style="fill:#b2b2d4;fill-opacity:1;fill-rule:nonzero;stroke:none"
         id="path18" /><path
         d="m 22651.8,24134.6 3232.3,-10989.2 c 466.3,98.9 1865.3,500.5 1753.8,1741.9 -132.4,1475.9 -2140.4,8879.1 -2480.2,10124.6 l -2505.9,-877.3 M 25763,12777.1 c -75,0 -142.7,49.3 -164.4,123.1 l -3322,11294 c -25.8,87.7 21.7,180.1 107.9,210.3 l 2833.5,992 c 44.9,15.7 94.2,12.2 136.4,-9.9 42.1,-22.2 73.1,-60.7 85.7,-106.6 97.7,-355.5 2392.8,-8727.1 2539.6,-10362 127.9,-1424.2 -1378,-2022 -2192.1,-2139.2 -8.2,-1.1 -16.4,-1.7 -24.6,-1.7"
         style="fill:#000072;fill-opacity:1;fill-rule:nonzero;stroke:none"
         id="path20" /><path
         d="m 32059.2,25393.6 c 848.1,-857.3 -2301.9,-2292.6 -2301.9,-2292.6 -929.4,-819.2 -4270.1,-3576.5 -4270.1,-3576.5 0,0 977,-2552.9 1134.8,-5641.2 157.3,-3088.2 898,-4175 2048,-6727.9 891.7,-1977.5 -2105.4,-2810.8 -3910.3,-2594.6 -507.3,60.8 -920.5,204.4 -1126.4,428.4 -7.9,7.9 -14.7,15.7 -21.1,23.5 -151.5,181.9 -238.2,356.4 -277.5,522.1 v 0.5 c -49,205.4 -24.5,396.1 38.3,565.7 60.3,161.3 154.9,303.9 254.9,422 196.1,232.4 412.7,372.1 425,379.9 l 0.5,0.5 c -1843.2,1654.4 -2526,4679.9 -2526,4679.9 -1575.5,-336.2 -2279.4,-220.6 -2279.4,-220.6 -591.2,-1530.8 -781.4,-4218.1 -824.5,-4978.4 -6.4,-112.2 -4.9,-224.5 -2,-336.7 57.9,-2371.6 -5430.9,-2722.1 -5843.6,-1050.5 -64.7,260.7 -82.9,486.2 -68.1,680.8 3.4,48.1 9.3,94.2 16.6,138.8 159.3,952.4 1159.3,1086.7 1159.3,1086.7 -267.6,3608.4 1197.6,6224 1197.6,6224 -88.7,311.3 -174,637.3 -255.4,966.2 -88.2,356.4 -171.1,715.7 -247.6,1060.8 -291.1,1318.6 -483.8,2435.8 -483.8,2435.8 -343.1,1571.5 462.8,2595.1 1546.1,3257.3 1600,978 3805.4,1166.2 3805.4,1166.2 0,0 2490.2,1052.5 5136.7,2228.9 1769.6,786.3 3609.3,1627.5 4821.1,2246.1 152.9,78 298.5,149.5 436.3,214.2 h 0.5 c 508.3,239.7 916.1,392.7 1242.6,483.4 1334.8,371.5 1318.6,-288.3 1318.6,-288.3 112.3,-33.8 200,-75.5 266.7,-123.5 590.2,-425 -459.8,-1336.3 -459.8,-1336.3 17.7,-14.7 33.3,-29.4 48.5,-44.6"
         style="fill:#ffffff;fill-opacity:1;fill-rule:nonzero;stroke:none"
         id="path22" /><path
         d="m 14939.4,4132.5 c -1062.2,0 -2044.3,294.8 -2195.1,905.6 -42.4,171.7 -64.9,332.2 -67.7,480.9 405.9,-363.3 989.2,-720.6 1734.1,-758.2 121.1,-6.1 240.1,-9.5 356.5,-9.5 1383.1,0 2414.4,476.1 2574.4,2467.3 122.7,1530.2 506.7,2888.7 720,3550.1 72.8,225.7 -3,470.1 -186,620.9 -113.6,93.6 -244.3,229.4 -372,424.4 -86.8,132.5 8.3,307.9 165.3,307.9 1.9,0 3.7,0 5.6,-0.1 163.5,-4.3 378.9,-8.1 633.3,-8.1 1167.8,0 3162.3,79.9 4781.6,550.8 19.2,5.6 38.1,8.2 56.4,8.2 143.2,0 248.6,-159.2 171.6,-295.5 -134.6,-238.5 -356.1,-541.2 -705,-805 -287.3,-217.1 -414.3,-586.2 -320.3,-933.9 176,-651.4 546,-1734.3 1282.3,-2981.2 -1341.3,1639.8 -1873.8,3937.7 -1879.7,3963.8 -18,79.6 -88.7,133.9 -167.1,133.9 -11.9,0 -24,-1.3 -36.1,-3.9 -922.1,-196.7 -1540.6,-235.4 -1884.7,-235.4 -220.8,0 -328.6,15.9 -331.1,16.3 -9.3,1.6 -18.6,2.3 -27.9,2.3 -69.7,0 -134.1,-42.8 -159.9,-109.8 -597.9,-1548.8 -790.8,-4241.7 -835.8,-5030.1 -6.9,-121.7 -4.8,-240.2 -2.1,-351.1 27.3,-1117.7 -1348.8,-1700 -2535.6,-1859.1 -255.9,-34.3 -517.8,-51.5 -775,-51.5"
         style="fill:#b2b2d4;fill-opacity:1;fill-rule:nonzero;stroke:none"
         id="path24" /><path
         d="m 24691.4,6296 c -263.3,0 -560.5,46.4 -892.1,162.2 169,186.1 342.8,298.3 345.9,300.2 27.5,17.4 49.2,42.1 63,70.7 157.7,-64.4 428.2,-147.3 775.2,-147.3 361.2,0 805.2,89.8 1291.5,383.9 -15.5,-23.5 -528.2,-769.7 -1583.5,-769.7"
         style="fill:#b2b2d4;fill-opacity:1;fill-rule:nonzero;stroke:none"
         id="path26" /><path
         d="m 25346.5,4699 c -764.5,0.1 -1383.2,161.5 -1602.5,423.7 -105.3,126 -179.1,253.1 -221.3,380.3 413.6,-65.4 795.6,-96.3 1146.3,-96.3 2506.1,0.2 3387,1580.4 2330.9,3431.5 -628,1101.3 -1125.2,2372.3 -1470.4,3387.9 -285.4,839.9 -1070.4,1374.6 -1922.3,1374.6 -161.2,0 -324.9,-19.1 -487.9,-59 -2283.8,-558.2 -4360.9,-664.1 -5608.2,-664.1 -207,0 -391.2,2.9 -549.6,7.1 -343.1,9.2 -632.1,245.9 -716.1,569.6 96.4,-78 215.8,-127.5 345.6,-137.6 346.9,-27.2 706.7,-39.2 1072.2,-39.2 2184.5,0 4568.7,430.2 5595,638.6 322.1,65.4 538.5,361.2 503.4,688 -29.6,276 -67.8,568.2 -110.3,861.9 922.8,181.7 2057.6,476 2534.5,602.7 5.5,1.5 11,3 16.4,4.6 116,-678.1 208.7,-1422.4 248.3,-2198.5 135.1,-2648.3 703.8,-3865.7 1564.7,-5708.6 158.6,-339.6 322.7,-690.8 498.6,-1081.1 320,-710.2 116.4,-1299.5 -605.3,-1751.7 -585.8,-367.2 -1477.9,-603.2 -2386.4,-631.6 -59.4,-1.8 -117.9,-2.8 -175.6,-2.8 m -10544.2,9405.2 c -42.8,172.4 -84.5,345.9 -124.7,518.2 71.5,-3.7 161.8,-6.6 267.2,-6.6 233,0 539.9,14.4 882.4,67.3 36.7,-174.8 72.6,-337.4 106.3,-484.4 -456.8,-46.4 -839.1,-75.9 -1131.2,-94.5 m 8794.3,2944 c 642.5,252.3 1138.7,491.7 1293,674.3 355.6,420.6 76.1,1405.8 -187.6,2093.9 -144.3,376.5 46.9,793.7 425.5,932.3 1737,635.5 2904.4,1913.4 3316.5,2394 l 1.1,1.4 c 238,273.8 254.1,673.8 41.4,967.7 -282,389.6 -515.1,925.3 -463.7,1605.3 26.8,12.8 53,25.3 79.6,38 42.6,-135.6 114.7,-330.3 227.7,-541.8 348.6,-652.9 1012.5,-1009.2 1693.4,-1009.2 394.5,0 794.6,119.6 1142.4,370.4 304,219.2 561.9,456.4 778.4,690.7 91.3,-96.6 93.1,-180.9 85.2,-238.5 -74.8,-544.9 -1477,-1374.6 -2343.3,-1769.6 -15.4,-7 -29.6,-16.2 -42.3,-27.4 -916.9,-808.2 -4232.3,-3545.5 -4265.7,-3573.1 -56.8,-46.9 -77.3,-124.8 -51.1,-193.6 5.2,-13.4 278.4,-736.5 556.5,-1864.9 -39.9,-4.2 -79.8,-11.2 -119.4,-21.1 -869.1,-218 -1679.9,-412.9 -2167.6,-528.8"
         style="fill:#b2b2d4;fill-opacity:1;fill-rule:nonzero;stroke:none"
         id="path28" /><path
         d="m 18460.1,18896.3 c -951.5,0 -2005.1,106.1 -3167,360.1 0,0 -306.7,-7.8 -589.9,-190.3 -7.5,294.1 30.6,578.5 102.1,850 455.3,-211.6 947,-360.6 1458.8,-440 749.3,-116.3 1444.9,-166.4 2088.1,-166.4 2069.3,0 3592.6,519.1 4584.1,1024.1 1417.6,722 2076.1,1555.2 2103.5,1590.3 32.8,42.2 44.1,97.3 30.6,148.9 l -228.6,871.5 c 293.1,332.4 533.2,720.5 719.8,1162.8 l 201.6,8.3 c -2,-8.5 -198.5,-865.1 -488.3,-1461.2 l 244.2,-945.1 c 0,0 -2165.6,-2813 -7059,-2813 m -3794.2,144.5 c -0.1,17.2 -0.4,34.1 -0.7,50.9 22.1,-16.2 35.9,-24.6 37.8,-25.8 -12.4,-8 -24.8,-16.4 -37.1,-25.1"
         style="fill:#b2b2d4;fill-opacity:1;fill-rule:nonzero;stroke:none"
         id="path30" /><path
         d="m 29964.5,25322.4 c -8.3,0 -12.6,0.1 -12.6,0.1 902.9,488.8 963.7,961.3 1010.8,1260.8 21.6,135.9 -249.2,173 -551,173 -80.5,0 -163.1,-2.6 -242.9,-6.7 380.2,158.7 682.5,255.9 922.2,311.9 372.9,-304.2 313.4,-824.3 45.2,-1187.5 -393.3,-531.5 -1071.4,-551.6 -1171.7,-551.6"
         style="fill:#b2b2d4;fill-opacity:1;fill-rule:nonzero;stroke:none"
         id="path32" /><path
         d="m 30986.7,25323 c 695,502.9 1028.9,1127.1 1154.8,1415.3 4.4,-1.6 8.8,-3.1 13.4,-4.5 126.2,-37.7 216,-86.5 268.4,-145.6 -297.8,-922.6 -1397,-1253.7 -1436.6,-1265.2"
         style="fill:#b2b2d4;fill-opacity:1;fill-rule:nonzero;stroke:none"
         id="path34" /><path
         d="m 31584.5,27127.8 c -363.9,0 -1045.5,-151.4 -2300.6,-792.1 -2996.1,-1529.2 -9899.8,-4450.6 -9969.2,-4479.9 -16.5,-7 -34.1,-11.4 -52.1,-12.9 -34.8,-3 -3498,-319.7 -4791.8,-2075.5 -447.5,-607.3 -584.4,-1327.6 -406.9,-2140.9 0.5,-2.4 1,-4.9 1.5,-7.4 4.3,-25.2 440.5,-2538.2 983.1,-4444.9 12.4,-43.8 6.9,-91 -15.4,-130.8 -14.4,-25.7 -1436.6,-2616.8 -1176.1,-6127.2 6.8,-90.6 -58.3,-170.7 -148.3,-182.8 -5,-0.7 -553.5,-82.2 -845.5,-513.8 -199.5,-295.1 -239.6,-692.6 -118.9,-1181.5 187.3,-758.7 1657.3,-1029.9 2970.1,-854.1 1186.8,159.1 2562.9,741.4 2535.6,1859.1 -2.7,110.9 -4.8,229.4 2.1,351.1 45,788.4 237.9,3481.3 835.8,5030.1 29.2,75.8 107.9,120.7 187.8,107.5 6.3,-1 701.8,-103.8 2215.8,219.1 91.8,19.7 182.5,-38.3 203.2,-130 6.7,-29.7 693.2,-2992.1 2473.5,-4589.7 40,-36 60.9,-88.5 56.3,-142.2 -4.4,-53.5 -33.9,-101.9 -79.3,-130.6 -5.6,-3.5 -575.3,-371.2 -655.3,-885.9 -38.7,-249.4 46.8,-501.7 254.1,-749.8 235.8,-282 933.8,-447.5 1778.1,-420.9 908.5,28.4 1800.6,264.4 2386.4,631.6 721.7,452.2 925.3,1041.5 605.3,1751.7 -175.9,390.3 -340,741.5 -498.6,1081.1 -860.9,1842.9 -1429.6,3060.3 -1564.7,5708.6 -154.2,3023.3 -1113.7,5562.9 -1123.4,5588.2 -26.2,68.8 -5.7,146.7 51.1,193.6 33.4,27.6 3348.8,2764.9 4265.7,3573.1 12.7,11.2 26.9,20.4 42.3,27.4 866.3,395 2268.5,1224.7 2343.3,1769.6 9.1,65.7 5.4,166.3 -129.7,280.4 -38.3,32.3 -60.5,79.8 -60.9,129.8 -0.3,50.2 21.2,98 59.1,130.8 252.3,219.6 631.8,664.9 575.6,924.6 -22.4,103.8 -129.7,185 -318.7,241.5 -77.6,23.2 -128.8,87.9 -122.4,168.5 -0.4,5.5 -6.4,94 -112.5,156.5 -55.9,32.9 -157.8,69 -335.5,69 M 14958.7,3790.6 c -1201,0 -2349.4,362.9 -2547.5,1165.3 -145.4,589 -88.2,1080 170.1,1459.4 272.4,400 695.1,562.8 923.4,624.3 -203.1,3276.6 971,5682.5 1194.7,6107.8 -528.9,1880.9 -952.2,4298.4 -971.5,4409.6 -198.4,912.7 -41.2,1725.1 467.1,2414.5 1338.2,1815.2 4647.8,2176.3 5010.7,2210.8 456.8,193.4 7027.1,2981.4 9922.2,4459.1 1501.9,766.5 2505.3,1003.1 2982.6,703.1 142.6,-89.7 213.8,-213.4 244.8,-316.6 256.3,-98.9 408.7,-254.4 453.8,-463.4 91.1,-422.6 -329,-908.1 -556.2,-1134.1 121.3,-164.4 133.2,-329.6 116.6,-450.5 -121.8,-885.7 -2181.9,-1869.6 -2517.7,-2024.4 -856.5,-752.5 -3617.7,-3036.7 -4161.8,-3486.4 190.6,-537.7 964.9,-2866.8 1103.2,-5576.8 131.7,-2581.3 659.1,-3710.3 1532.9,-5580.8 159.1,-340.7 323.6,-693 500.5,-1085.4 390.3,-866.1 129,-1641.5 -735.8,-2183.5 -1362.5,-854 -3947.6,-932.4 -4610.1,-139.9 -274,327.9 -384.9,672.6 -329.5,1024.6 72.7,462.7 418.8,813 635,991 -1529.9,1481.5 -2219.3,3820.9 -2385.9,4463.3 -1110.6,-224 -1767.8,-220.3 -2037.6,-202.6 -544.5,-1519.4 -725,-4049.1 -768,-4804.4 -6.2,-108.7 -4.2,-219.2 -1.6,-323 32.8,-1344.8 -1505.7,-2029.7 -2833.1,-2207.7 -263,-35.2 -533.6,-53.2 -801.3,-53.3"
         style="fill:#000072;fill-opacity:1;fill-rule:nonzero;stroke:none"
         id="path36" /><path
         d="m 16126,8050.9 c -1471.8,0 -2454.2,507.2 -2515.3,539.5 l 160.5,303.3 c 21.3,-11.1 2156.5,-1106.6 4814.3,6.6 l 132.5,-316.5 c -953.6,-399.4 -1837.2,-532.9 -2592,-532.9"
         style="fill:#000072;fill-opacity:1;fill-rule:nonzero;stroke:none"
         id="path38" /><path
         d="m 24140.1,7051.7 c 4.6,-3 14.4,-8.4 23.3,-13.2 8.6,-5 18.1,-9.9 27.9,-14.7 19.2,-9.6 38.4,-19.4 58.8,-28.5 39.5,-19.3 81.5,-35.3 122.9,-52.3 84.4,-30.6 170.6,-58.2 258.7,-80.2 176.4,-43.4 359.5,-65.1 544,-62.1 183.9,4.5 371.2,25.8 551.9,80 93,19.4 180.2,56.5 273.1,83.6 47,12.6 89.5,34.9 135.5,51.2 46,16.8 91.3,35.3 139,50.8 -74.4,-63.6 -149.5,-130.9 -233.2,-184.9 -85,-51 -169.8,-107.1 -263.7,-143.4 -46.1,-20 -92.3,-40.9 -139.9,-57.9 l -145.2,-45.3 c -48.2,-17.1 -98.5,-25.1 -148.3,-36.3 -50,-10.3 -99.9,-23.1 -151,-27.6 -203.1,-32.9 -412,-27.6 -617.6,0.2 -51.8,5.4 -102.4,17.7 -153.9,26.4 -50.9,11.1 -101.3,25.1 -151.8,38.8 -50.1,15.9 -100.4,31 -150,50.6 -25,8.7 -49.8,19.3 -74.6,30.4 -12.4,5.3 -24.8,10.8 -37.7,17.2 -12.8,6.2 -24.7,11.8 -41.2,20.8 l 173,296.4"
         style="fill:#000072;fill-opacity:1;fill-rule:nonzero;stroke:none"
         id="path40" /><path
         d="m 23176.2,8665.1 c -348.2,0 -577.3,16.8 -611.9,19.5 l 26.6,342 c 32.5,-2.4 3255.3,-234.7 4648.3,1176 l 244.1,-241.1 C 26353.2,8817 24225.2,8665.1 23176.2,8665.1"
         style="fill:#000072;fill-opacity:1;fill-rule:nonzero;stroke:none"
         id="path42" /><path
         d="m 13857.3,6895.1 c -0.2,2 -0.6,-0.8 -1,-2.5 -0.3,-1.6 -0.6,-3.9 -0.9,-6.3 l -1.8,-14.5 -3,-31.5 c -1.4,-21.8 -2.6,-44.2 -2.9,-67.1 -0.7,-45.7 1.4,-92.8 7.6,-140.6 6.2,-47.7 15.4,-96.6 29.7,-145.6 12.1,-50.7 27.4,-101.8 37.3,-166.5 -62.3,14.8 -116.9,45.7 -161.4,86.4 -45.1,40.5 -84.2,88.1 -118.5,139.8 -34.8,51.5 -63.4,107.8 -85.4,167.3 -11.2,29.7 -20.5,60.3 -28,92 -3.6,16 -6.9,31.9 -9.4,48.7 -1.4,8.1 -2.5,16.8 -3.2,25.7 l -1.2,13.9 c -0.3,5 -0.6,8.9 -0.6,17.6 l 342.7,-16.8"
         style="fill:#000072;fill-opacity:1;fill-rule:nonzero;stroke:none"
         id="path44" /><path
         d="m 19217,11193.8 c -284.8,116.6 -567,233.8 -846.2,352.6 305.5,-3.8 608.1,-9.2 908,-15.1 l -61.8,-337.5"
         style="fill:#000072;fill-opacity:1;fill-rule:nonzero;stroke:none"
         id="path46" /><path
         d="m 21474.1,11746.2 c 78.3,18.3 156.9,35.6 236.5,50.2 79.3,15.2 158.7,30.6 239,43.7 80.1,13.3 160.4,26.7 241.5,37.8 81.3,10.6 163.9,17.6 250.1,15.1 -66.2,-54.2 -135.8,-98.8 -206.8,-139.9 -71.3,-40.5 -143.3,-78.8 -215.5,-117.1 -72,-38.5 -145,-74.8 -217.9,-111.2 -72.7,-37.1 -146.4,-71.4 -220.5,-104.8 l -106.4,326.2"
         style="fill:#000072;fill-opacity:1;fill-rule:nonzero;stroke:none"
         id="path48" /><path
         d="m 29681.5,22947.1 c -1182.5,582.7 -1594.7,1375.3 -1732.2,1937.7 -150.4,615.2 -14.4,1090.2 -8.5,1110.1 l 329.2,-96.9 -164.6,48.5 164.7,-47.9 c -19.2,-67.1 -448.2,-1652.7 1563.1,-2643.7 l -151.7,-307.8"
         style="fill:#000072;fill-opacity:1;fill-rule:nonzero;stroke:none"
         id="path50" /><path
         d="m 29160.3,26654 c 291.9,91.1 583.8,160.8 886.5,212.1 151.2,24.9 304.2,46.2 464.7,51.9 80.3,3.1 162.4,3 252.1,-7.6 21.8,-1.9 46.5,-7.2 69.5,-11 24,-4.7 50.2,-12.3 75.6,-19.8 53.1,-20.8 119.1,-46.8 179.3,-124.8 13.8,-21.1 26,-44 35.8,-67 4.9,-14.8 7.5,-26.1 11.2,-39.3 6.6,-25.6 14.1,-51.2 15.7,-77.1 2.3,-25.7 6.9,-52.1 5.8,-77.2 l -3.4,-75.7 c -12.6,-98.1 -42.7,-187.3 -81.5,-267.3 -80,-158.8 -190.8,-281.8 -305.1,-392.7 -230.2,-218.6 -491.1,-394.9 -814.8,-435.9 91.8,135.9 197.9,239.5 301,342.5 53.3,49.4 104,99.7 157.5,146.5 l 75.9,73.7 c 24.6,25 47.4,51.1 71.3,76.4 91.3,103 170.9,214.9 216.8,326.7 23.1,55.5 36.2,110.1 40.3,160.2 -0.7,12 -1,24 -0.9,35.9 0.3,12.1 -4,22.5 -5,33.8 -0.5,11.4 -5.6,21.2 -8.7,31.5 l -4.4,14.3 c 0.7,-6.8 3.9,-13.4 8.7,-18.3 13.7,-18.7 9.9,-11.4 -6.5,-7.2 -10.5,2 -20.1,5 -32.7,7 -13.8,1.4 -25.5,4.3 -40.9,5.1 -58.3,5.1 -125.7,4.1 -193.9,-0.8 -136.9,-10.4 -279.4,-29.2 -421.7,-53.3 -284.4,-48.2 -573.7,-111.2 -857,-173.4 l -91.2,330.8"
         style="fill:#000072;fill-opacity:1;fill-rule:nonzero;stroke:none"
         id="path52" /><path
         d="m 32375.1,26886 c -3.7,-42.6 -8.2,-61.4 -13.4,-89.1 -5.4,-25 -11.9,-49.2 -18.8,-72.9 l -22.6,-69.1 -26.5,-65.9 c -36.5,-86.8 -81,-167.7 -128.6,-245.1 -48.4,-77.1 -101.6,-149.5 -156.3,-220.2 -57.6,-68 -114.3,-136.3 -176.5,-198.7 -60.4,-64.4 -126.4,-122.1 -190.1,-181.7 -65.2,-57.9 -133.9,-111.5 -203.5,-163.5 -71.5,-49.4 -143.9,-97.4 -218.6,-141.3 -76,-42.3 -153.8,-81.6 -234.4,-115.9 50.7,72.5 104,140.1 159.1,204.7 53.1,66.7 106.2,132.4 161.3,195.1 51,66.7 106.1,128.5 158.1,192.6 50.8,64.8 104,127.5 149.9,194.8 97.8,130.2 185.3,265.8 259.1,403.9 38,68.5 69.9,138.9 99,208.1 13.8,34.9 26.4,69.4 37.4,103.4 l 14.4,49.5 5.7,23 1.9,9.4 1,4.6 0.2,-1.2 342.2,-24.5"
         style="fill:#000072;fill-opacity:1;fill-rule:nonzero;stroke:none"
         id="path54" /><path
         d="m 32131.3,25316.3 c -46,-37 -92.4,-67 -141.1,-97.2 -48.6,-29.5 -98.5,-57.4 -150.1,-82.8 -51.6,-25.4 -103.8,-49.9 -159.7,-68.5 -55.5,-18.9 -114,-34 -174.1,-36.7 35.7,47.9 66.7,94.4 98.7,139.3 l 95.1,132.8 94.3,131.2 c 31.4,42.7 64.1,86.7 95.3,125.6 l 241.6,-243.7"
         style="fill:#000072;fill-opacity:1;fill-rule:nonzero;stroke:none"
         id="path56" /><path
         d="m 25324.8,19469.4 c -25.3,108.5 -39.9,220.6 -51.1,333.8 -10.5,113.5 -20,227.2 1,351.3 91.9,-85.9 153.3,-182.2 213.7,-278.9 59.6,-96.8 116,-194.8 161.6,-296.4 l -325.2,-109.8"
         style="fill:#000072;fill-opacity:1;fill-rule:nonzero;stroke:none"
         id="path58" /><path
         d="m 23164.3,16769.8 c 0,0 1236.7,288.5 2641.7,640.8 376.9,94.5 763.4,-149.8 804.7,-522.6 0.6,-5.5 1.2,-11 1.7,-16.5 26.2,-292.5 -176.7,-558.9 -470.6,-637 -579.8,-154 -1862.2,-484.7 -2800.7,-652.3 l -176.8,1187.6"
         style="fill:#ffffff;fill-opacity:1;fill-rule:nonzero;stroke:none"
         id="path60" /><path
         d="m 23600.3,15805.7 c -18.4,118.8 -37.4,236.9 -56.4,353.2 864,177.5 1861.1,435.2 2352.8,565.8 204.1,54.3 364.2,199.4 434.2,380.9 61.4,-66 99.4,-147.4 109.2,-235.9 l 1.4,-13.5 c 18.5,-206.3 -126,-398 -343.8,-455.8 -470.9,-125.2 -1588,-414.9 -2497.4,-594.7"
         style="fill:#b2b2d4;fill-opacity:1;fill-rule:nonzero;stroke:none"
         id="path62" /><path
         d="m 23357.2,16638.9 127.4,-855.7 c 928.2,177.2 2122,486.6 2613.1,617.2 217.8,57.8 362.3,249.5 343.8,455.8 l -1.4,13.5 c -13.3,120.5 -78.9,227.6 -184.6,301.1 -118,82.1 -266.6,108.7 -407.8,73.4 -1104.6,-277 -2115.5,-517 -2490.5,-605.3 m -16.1,-1228.3 c -35.7,0 -70.7,11.2 -100.1,32.3 -37.7,27.1 -62.8,68.2 -69.6,114 l -176.8,1187.6 c -13.2,88.4 43.7,172.1 130.7,192.4 12.3,2.9 1251.5,292.1 2638.9,640.1 237.3,59.5 487.7,14.1 687.1,-124.4 185.6,-129 305.8,-327.9 329.9,-545.7 l 2.1,-20.2 c 33.5,-373 -217.8,-717.1 -597.5,-818 -526.5,-139.9 -1854.8,-484 -2814.5,-655.4 -10.1,-1.8 -20.1,-2.7 -30.2,-2.7"
         style="fill:#000072;fill-opacity:1;fill-rule:nonzero;stroke:none"
         id="path64" /><path
         d="m 15805.5,15813.9 c 0,0 -608.9,-81.1 -1147.4,-114.5 -462.9,-28.8 -681.2,-593.8 -351.1,-919.7 4.6,-4.5 9.3,-9.1 14.1,-13.6 91.3,-86.1 211,-135.6 336.2,-142.6 246.1,-13.8 742,-20.8 1318.6,84.7 l -170.4,1105.7"
         style="fill:#ffffff;fill-opacity:1;fill-rule:nonzero;stroke:none"
         id="path66" /><path
         d="m 14677.6,14622.4 c -6.9,0.4 -13.7,0.7 -20.3,1.1 -125.2,7 -244.9,56.5 -336.2,142.6 -4.8,4.5 -9.5,9.1 -14.1,13.6 -0.3,0.3 -0.6,0.7 -0.9,1 0.3,-0.3 0.6,-0.7 0.9,-1 4.6,-4.5 9.3,-9.1 14.1,-13.6 91.3,-86.1 211,-135.6 336.2,-142.6 6.6,-0.4 13.4,-0.7 20.3,-1.1 v 0 m -372,158.7 c -0.1,0.1 -0.3,0.3 -0.4,0.5 0.1,-0.2 0.3,-0.4 0.4,-0.5 m -1,1 c -0.1,0.1 -0.2,0.2 -0.4,0.4 0.2,-0.2 0.3,-0.3 0.4,-0.4 m -0.9,0.9 c -0.1,0.1 -0.2,0.3 -0.4,0.4 0.1,-0.1 0.3,-0.3 0.4,-0.4 m -0.9,0.9 c -0.1,0.2 -0.3,0.3 -0.4,0.4 0.1,-0.1 0.3,-0.2 0.4,-0.4 m -0.9,1 c -0.2,0.1 -0.3,0.2 -0.4,0.3 0.1,-0.1 0.2,-0.2 0.4,-0.3 m -1,0.9 c -0.1,0.1 -0.2,0.2 -0.3,0.4 0.1,-0.2 0.2,-0.3 0.3,-0.4 m -0.9,0.9 c -0.1,0.1 -0.2,0.3 -0.3,0.4 0.1,-0.1 0.2,-0.3 0.3,-0.4 m -0.9,1 c -0.1,0.1 -0.2,0.2 -0.3,0.3 0.1,-0.1 0.2,-0.2 0.3,-0.3 m -0.9,0.9 c -0.1,0.1 -0.1,0.1 -0.2,0.2 0.1,-0.1 0.1,-0.1 0.2,-0.2 m -0.9,1 h -0.1 c 0.1,0 0.1,0 0.1,0"
         style="fill:#000072;fill-opacity:1;fill-rule:nonzero;stroke:none"
         id="path68" /><path
         d="m 14944.8,14615.8 c -105.4,0 -195.7,2.9 -267.2,6.6 -6.9,0.4 -13.7,0.7 -20.3,1.1 -125.2,7 -244.9,56.5 -336.2,142.6 -4.8,4.5 -9.5,9.1 -14.1,13.6 -0.3,0.3 -0.6,0.7 -0.9,1 -0.2,0.1 -0.3,0.2 -0.5,0.4 -0.1,0.1 -0.3,0.3 -0.4,0.5 -0.2,0.1 -0.4,0.3 -0.6,0.5 -0.1,0.1 -0.2,0.2 -0.4,0.4 -0.1,0.1 -0.3,0.3 -0.5,0.5 -0.1,0.1 -0.3,0.3 -0.4,0.4 -0.2,0.2 -0.3,0.4 -0.5,0.5 -0.1,0.2 -0.3,0.3 -0.4,0.4 -0.2,0.2 -0.4,0.4 -0.5,0.6 -0.2,0.1 -0.3,0.2 -0.4,0.3 -0.2,0.2 -0.4,0.4 -0.6,0.6 -0.1,0.1 -0.2,0.2 -0.3,0.4 -0.2,0.2 -0.4,0.3 -0.6,0.5 -0.1,0.1 -0.2,0.3 -0.3,0.4 -0.2,0.2 -0.4,0.4 -0.6,0.6 -0.1,0.1 -0.2,0.2 -0.3,0.3 -0.2,0.2 -0.4,0.4 -0.6,0.6 -0.1,0.1 -0.1,0.1 -0.2,0.2 -0.2,0.2 -0.5,0.5 -0.7,0.8 0,0 0,0 -0.1,0 -145,150.3 -177.3,348.3 -125.5,521.4 11.6,-14 23.8,-27.8 37.3,-41.1 4.6,-4.5 9.3,-9.1 14.1,-13.6 91.2,-86.1 210.9,-135.6 336.2,-142.6 74.5,-4.2 171.9,-7.7 287.5,-7.7 233,0 539.9,14.4 882.3,67.3 32.6,-171.3 65.6,-335.5 98.1,-490.2 -342.5,-52.9 -649.4,-67.3 -882.4,-67.3"
         style="fill:#b2b2d4;fill-opacity:1;fill-rule:nonzero;stroke:none"
         id="path70" /><path
         d="m 15661.4,15622.9 c -220.7,-26.6 -624.6,-71.9 -992.6,-94.8 -176.7,-11 -283.5,-131.9 -324.5,-241.5 -51.8,-138.3 -20.7,-282.2 83.2,-384.7 l 11.7,-11.3 c 60.3,-56.8 141.3,-91 227.8,-95.8 213.4,-11.9 624.9,-18.8 1113.6,54.7 z m -717.5,-1178.7 c -119.3,0 -219.6,3.7 -296.1,8 -167.2,9.4 -325.1,76.5 -444.4,189.1 l -17.1,16.5 c -199.9,197.3 -262.5,484.4 -163.4,749.2 100.5,268.3 339.8,445.9 624.6,463.6 526.3,32.7 1129.3,112.6 1135.4,113.4 93.2,12.3 177.9,-51.6 192.2,-144 l 170.4,-1105.7 c 14.2,-91.8 -47.3,-178.2 -138.7,-194.9 -414.3,-75.8 -788.6,-95.2 -1062.9,-95.2"
         style="fill:#000072;fill-opacity:1;fill-rule:nonzero;stroke:none"
         id="path72" /><path
         d="m 23224,14084.3 c -1095.1,-222.5 -4193.2,-786.3 -6619.6,-596.6 -197.6,15.2 -361.8,157.4 -408.9,349.5 -34.8,141.7 -78.4,325 -126.4,539.3 -143.7,643.6 -325,1567.1 -419.2,2479.4 -27.4,263.7 175,495.6 440.2,506.3 1055.9,43.2 3673.6,185.3 6106.4,588.3 123.5,20.6 247.1,41.7 369.6,63.7 248.5,44.1 486.8,-117.6 535.3,-365.7 131.9,-677.4 375,-1995.6 489.7,-3062.7 25.5,-236.8 -133.3,-453.9 -367.1,-501.5"
         style="fill:#ffffff;fill-opacity:1;fill-rule:nonzero;stroke:none"
         id="path74" /><path
         d="m 16097.3,17190.9 c -81.1,-3.3 -155,-38.9 -208.1,-100.3 -52.5,-60.6 -76.9,-137.8 -68.7,-217.3 122.7,-1187 392,-2385.9 541.6,-2994.9 29.8,-121.8 132.6,-210 255.6,-219.6 2377.9,-186.1 5388.3,353.2 6572.3,593.6 147.4,29.9 246.5,165.4 230.4,315.1 -113.7,1058.4 -354.3,2364.1 -487.6,3048.3 -30.1,154.3 -181.1,257.1 -336.8,229.4 -2544.3,-454.1 -5392.3,-608.8 -6498.7,-654.3 m 1565.9,-3913.4 c -365.5,0 -725.3,12 -1072.2,39.2 -271,21.2 -496.9,214 -562.1,479.8 -151.8,617.6 -424.9,1834 -549.7,3041.6 -18,174.6 35.4,344 150.5,477 114,131.8 279.3,211.5 453.5,218.7 v 0 c 1099.4,45.1 3928.9,198.7 6452.6,649.2 338.6,60.7 668.1,-164.5 733.8,-501.6 134.3,-689.5 376.9,-2006.2 492,-3077.3 35.1,-326.8 -181.3,-622.6 -503.4,-688 -1026.3,-208.4 -3410.5,-638.6 -5595,-638.6"
         style="fill:#000072;fill-opacity:1;fill-rule:nonzero;stroke:none"
         id="path76" /><path
         d="m 20248.5,15862 -749,-83.2 c -96.5,-10.7 -183.3,58.7 -194,155.2 l -83.2,749 c -10.7,96.4 58.7,183.3 155.1,194 l 749.1,83.2 c 96.4,10.7 183.3,-58.7 194,-155.2 l 83.2,-749 c 10.7,-96.4 -58.8,-183.3 -155.2,-194"
         style="fill:#000072;fill-opacity:1;fill-rule:nonzero;stroke:none"
         id="path78" /><path
         d="m 21806,16035.1 -749.1,-83.3 c -96.4,-10.7 -183.3,58.8 -194,155.2 l -83.2,749.1 c -10.7,96.4 58.8,183.2 155.2,193.9 l 749,83.3 c 96.4,10.7 183.3,-58.8 194,-155.2 l 83.2,-749.1 c 10.7,-96.4 -58.7,-183.2 -155.1,-193.9"
         style="fill:#000072;fill-opacity:1;fill-rule:nonzero;stroke:none"
         id="path80" /><path
         d="m 20435,14395.1 -749,-83.2 c -96.4,-10.7 -183.3,58.8 -194,155.2 l -83.2,749.1 c -10.7,96.4 58.7,183.2 155.2,193.9 l 749,83.3 c 96.4,10.7 183.3,-58.8 194,-155.2 l 83.2,-749.1 c 10.7,-96.4 -58.7,-183.2 -155.2,-194"
         style="fill:#000072;fill-opacity:1;fill-rule:nonzero;stroke:none"
         id="path82" /><path
         d="m 21992.5,14568.2 -749.1,-83.2 c -96.4,-10.7 -183.2,58.7 -194,155.1 l -83.2,749.1 c -10.7,96.4 58.8,183.2 155.2,194 l 749.1,83.2 c 96.4,10.7 183.2,-58.8 193.9,-155.2 l 83.3,-749 c 10.7,-96.5 -58.8,-183.3 -155.2,-194"
         style="fill:#000072;fill-opacity:1;fill-rule:nonzero;stroke:none"
         id="path84" /><path
         d="m 17928,13430.8 -276.6,1938.2 -579,-49.3 c -91.6,-8.7 -174.3,59 -185,151.2 l -221.5,1907.5 340.8,39.6 202.3,-1742.3 574.8,48.9 c 91.1,8.3 171.6,-56.7 184.3,-146.7 l 299.5,-2098.6 -339.6,-48.5"
         style="fill:#000072;fill-opacity:1;fill-rule:nonzero;stroke:none"
         id="path86" /><path
         d="m 17666.5,13620.5 c -357.7,0 -709.7,11.7 -1048.8,38.3 -123,9.6 -225.8,97.8 -255.6,219.6 -32.9,133.9 -71.6,296.5 -113.3,481.1 202,-16.6 560.5,-39.4 1005.6,-39.4 170.3,0 353.2,3.3 545,11.6 l 101.3,-709.6 c -78.3,-1.1 -156.5,-1.6 -234.2,-1.6 m 579.6,9.7 -103,721.5 c 430.3,31.5 889.8,90.2 1340.4,192.3 l 8.5,-76.9 c 10,-89.8 86,-156.3 174.4,-156.3 6.4,0 13,0.4 19.6,1.1 l 749,83.2 c 96.5,10.8 165.9,97.6 155.2,194 l -33.8,304.6 c 152.8,69 299.9,146 439.1,231.6 l 53.9,-485.2 c 10,-89.8 86.1,-156.2 174.4,-156.2 6.5,0 13,0.3 19.6,1.1 l 749.1,83.2 c 96.4,10.7 165.9,97.5 155.2,194 l -83.3,749 c -10,89.8 -86,156.3 -174.3,156.3 -6.5,0 -13,-0.4 -19.6,-1.1 l -245.2,-27.2 c 458.7,504.5 710.6,1196.5 595.4,2141.5 125.6,20.8 250.9,42.3 375.3,64.5 17.1,3.1 34.1,4.5 50.9,4.5 136.4,0 259.1,-96.5 285.9,-233.9 133.3,-684.2 373.9,-1989.9 487.6,-3048.3 16.1,-149.7 -83,-285.2 -230.4,-315.1 -924.5,-187.7 -2962.8,-557.7 -4943.9,-622.2"
         style="fill:#b2b2d4;fill-opacity:1;fill-rule:nonzero;stroke:none"
         id="path88" /><path
         d="m 17656.9,13449.4 c -359.3,0 -712.4,11.7 -1052.5,38.3 -197.6,15.2 -361.8,157.4 -408.9,349.5 -34.8,141.7 -78.4,325 -126.4,539.3 0,0 64.3,-7.5 179.7,-17 41.7,-184.6 80.4,-347.2 113.3,-481.1 29.8,-121.8 132.6,-210 255.6,-219.6 339.1,-26.6 691.1,-38.3 1048.8,-38.3 77.7,0 155.9,0.5 234.2,1.6 l 24.3,-170.6 c -89.7,-1.4 -179,-2.1 -268.1,-2.1 m 440.5,5.6 170.2,24.3 -21.5,150.9 c 1981.1,64.5 4019.4,434.5 4943.9,622.2 147.4,29.9 246.5,165.4 230.4,315.1 -113.7,1058.4 -354.3,2364.1 -487.6,3048.3 -26.8,137.4 -149.5,233.9 -285.9,233.9 -16.8,0 -33.8,-1.4 -50.9,-4.5 -124.4,-22.2 -249.7,-43.7 -375.3,-64.5 -6.8,55.8 -14.8,112.2 -24.2,169.8 123.5,20.6 247.1,41.7 369.6,63.7 27.5,4.9 54.9,7.3 81.9,7.3 217.1,0 410.2,-152.4 453.4,-373 131.9,-677.4 375,-1995.6 489.7,-3062.7 25.5,-236.8 -133.3,-453.9 -367.1,-501.5 -879.2,-178.7 -3049.5,-577.2 -5126.6,-629.3"
         style="fill:#000072;fill-opacity:1;fill-rule:nonzero;stroke:none"
         id="path90" /><path
         d="m 19666.4,14310.8 c -88.4,0 -164.4,66.5 -174.4,156.3 l -8.5,76.9 c 371.1,84.1 736.1,197.8 1072.9,349.7 l 33.8,-304.6 c 10.7,-96.4 -58.7,-183.2 -155.2,-194 l -749,-83.2 c -6.6,-0.7 -13.2,-1.1 -19.6,-1.1"
         style="fill:#000072;fill-opacity:1;fill-rule:nonzero;stroke:none"
         id="path92" /><path
         d="m 21223.8,14483.9 c -88.3,0 -164.4,66.4 -174.4,156.2 l -53.9,485.2 c 235.7,144.9 448.7,314.7 629.8,513.9 l 245.2,27.2 c 6.6,0.7 13.1,1.1 19.6,1.1 88.3,0 164.3,-66.5 174.3,-156.3 l 83.3,-749 c 10.7,-96.5 -58.8,-183.3 -155.2,-194 l -749.1,-83.2 c -6.6,-0.8 -13.1,-1.1 -19.6,-1.1"
         style="fill:#000072;fill-opacity:1;fill-rule:nonzero;stroke:none"
         id="path94" /><path
         d="m 17925,13451.5 -24.3,170.6 -101.3,709.6 c 111.7,4.9 226.8,11.5 343.7,20 l 103,-721.5 21.5,-150.9 -170.2,-24.3 c -57.5,-1.4 -115.1,-2.6 -172.4,-3.5"
         style="fill:#000072;fill-opacity:1;fill-rule:nonzero;stroke:none"
         id="path96" /><path
         d="m 13417.6,23116.7 -843.6,-311.8 c -332.4,-122.6 -704.9,-5.9 -910.3,282.8 -203,285.3 -367.7,585.3 -501,890.2 -575,1315.7 -565.7,2726.5 -507.4,3462.3 24.6,308.3 228,573 519.2,675.5 l 88.2,31.3 658.3,232.4 c -140.7,-3784.8 1472.6,-5240.7 1496.6,-5262.7"
         style="fill:#ffffff;fill-opacity:1;fill-rule:nonzero;stroke:none"
         id="path98" /><path
         d="m 11409.8,23485.2 c -92.4,161.7 -174.4,326.5 -247.1,492.7 1.7,1.1 3.4,2.2 5.1,3.3 249.6,160.6 369.1,462.5 296.1,750.2 -182.9,719.9 -459.9,2143.1 -201.2,3415.6 l 178.3,63 c -0.4,-7.7 -0.7,-13.8 -0.9,-18.1 -163.4,-1578.8 9.3,-2964.6 513.9,-4136.1 -193.2,-178 -376.9,-368.1 -544.2,-570.6"
         style="fill:#b2b2d4;fill-opacity:1;fill-rule:nonzero;stroke:none"
         id="path100" /><path
         d="m 11742.9,28134.4 -511.1,-180.4 c -227.1,-80.1 -386.3,-287.1 -405.3,-527.2 -76.7,-962.6 -51.6,-2793.3 977,-4239.4 160.5,-225.7 452.9,-316.7 711,-221.4 l 601,221.9 c -428.6,505.6 -1425.1,2002.5 -1372.6,4946.5 z m 562.4,-5549 c -303.2,0 -597.8,145 -781.4,403.1 -1091.5,1534.6 -1119.8,3456.5 -1039.5,4465.5 29.8,375.1 278.4,698.4 633.2,823.6 l 746.5,263.5 c 53.6,18.9 113,10.1 158.8,-23.6 45.7,-33.6 71.9,-87.8 69.8,-144.6 -136.6,-3672.9 1423.7,-5113.9 1439.5,-5128 44.8,-40.1 65.5,-101 54.3,-160.1 -11.3,-59.1 -52.5,-108.2 -109,-129 l -844.1,-311.7 c -107.2,-39.6 -218.3,-58.7 -328.1,-58.7"
         style="fill:#000072;fill-opacity:1;fill-rule:nonzero;stroke:none"
         id="path102" /><path
         d="m 24904.3,22029.4 c 0,0 -2584.7,-3319.6 -8613.7,-2383.8 -860.8,133.3 -1679.9,471.1 -2365.7,1007.8 -93.6,73.5 -182.8,149 -264.2,225.5 l 310.3,896.1 2914.7,331.8 7766.7,883.9 113.7,-434.3 138.2,-527"
         style="fill:#ffffff;fill-opacity:1;fill-rule:nonzero;stroke:none"
         id="path104" /><path
         d="m 13689.1,20885.9 c 74.1,-68.8 158.5,-140.5 251,-213.2 665.1,-520.6 1479.2,-867.3 2354.3,-1002.9 3106.4,-482.2 5276.6,189.2 6550.2,837.3 1300.8,661.9 1956.6,1434.7 2032.9,1528 l -243.4,928.8 -10644.9,-1211.5 -300.1,-866.5 m 4663.5,-1429.2 c -636,0 -1324.2,49.6 -2065.7,164.7 -883.4,136.8 -1705.4,487 -2377,1012.7 -98.6,77.5 -188.1,153.8 -266,226.9 l -11.5,10.9 320.5,925.7 2930,333.6 7787.8,886.2 260.4,-993.5 -7.4,-9.6 c -6.5,-8.3 -665.6,-842.3 -2054.2,-1549.6 -976.2,-497.1 -2476.3,-1008 -4516.9,-1008"
         style="fill:#000072;fill-opacity:1;fill-rule:nonzero;stroke:none"
         id="path106" /><path
         d="m 18352.1,19652.8 c -626.1,0 -1304.4,48.9 -2035.3,162.3 -495,76.8 -969.5,222.8 -1406.6,430.8 53.2,142.9 115,281.6 183.4,415.9 46.1,75.2 94,150.9 143.7,226.8 186,-71.5 376.5,-134.1 570.4,-187.2 l -120.9,-157.6 c -77.6,-101.2 -23.4,-248.7 101.4,-275 424.5,-89.5 1325,-245.3 2452.9,-245.3 1884,0 4402.5,434.3 6399,2337.7 l 75.8,-289.1 c -177.8,-202.4 -804.9,-856.8 -1935.3,-1432.5 -955.9,-486.8 -2425.6,-986.8 -4428.5,-986.8"
         style="fill:#b2b2d4;fill-opacity:1;fill-rule:nonzero;stroke:none"
         id="path108" /><path
         d="m 13860,20929.7 c 52.4,-46 109.6,-93.3 170.8,-141.2 644.4,-504.7 1434.9,-841.3 2286,-973.4 3068.9,-476.2 5209.1,185.5 6463.8,824.5 1130.4,575.7 1757.5,1230.1 1935.3,1432.5 l -191.8,731.3 -10426.4,-1186.5 -237.7,-687.2 m 4492.2,-1620 c -643.2,0 -1338.8,50.1 -2088.1,166.4 -908.9,141 -1754.4,501.4 -2444.9,1042.2 -102.9,80.6 -195.7,160 -276.1,235.9 -49,46.3 -66.4,117 -44.3,180.8 l 310,896.3 c 21.6,62.4 77.1,106.9 142.8,114.3 l 10681.3,1215.5 c 84,9.5 163.8,-44.4 185.4,-126.9 l 252.1,-961.2 c 13.5,-51.6 2.2,-106.7 -30.6,-148.9 -27.4,-35.1 -685.9,-868.3 -2103.5,-1590.3 -991.5,-505 -2514.8,-1024.1 -4584.1,-1024.1"
         style="fill:#000072;fill-opacity:1;fill-rule:nonzero;stroke:none"
         id="path110" /><path
         d="m 11611.4,28179.7 c 0,0 168,4989.5 5997.9,5588.3 728.7,74.8 1397.4,74.8 2009.7,17.5 3571.4,-334.3 6277.4,-3379.7 6256.7,-6966.7 -7.8,-1345 -282.9,-2813.2 -1223.4,-3828.1 0,0 -2534.6,-2788.3 -7771.2,-2309.6 -1684.8,154 -3235.2,1024.4 -4199.9,2414.3 -772.4,1112.8 -1314.1,2736.7 -1069.8,5084.3"
         style="fill:#ffffff;fill-opacity:1;fill-rule:nonzero;stroke:none"
         id="path112" /><path
         d="m 18725.2,33801.8 c -363.5,0 -735.6,-19.4 -1113.4,-58.2 -3000.1,-308.2 -4464.9,-1804.1 -5165.4,-3004.7 -759.5,-1301.9 -810.1,-2547.6 -810.5,-2560 l -0.2,-1.7 c -212,-2038.6 146.5,-3743.6 1065.6,-5067.8 952.2,-1371.8 2476.5,-2248 4182.1,-2403.9 2698,-246.6 4661.7,392.2 5833.8,971.7 1270.2,627.8 1910.7,1323 1917,1330 798,861.1 1207.4,2143.5 1217,3811.8 20.6,3563.6 -2718,6612.9 -6234.5,6942.1 -289.9,27.1 -587.7,40.7 -891.5,40.7 m -666.3,-13199.7 c -376.3,0 -769.7,17.1 -1180,54.6 -1720,157.2 -3257.4,1041 -4217.8,2424.7 -926,1334 -1287.4,3049.8 -1074.2,5100.1 1.7,40.4 59.8,1282.8 816.1,2580.2 706,1211.2 2182,2720.3 5203.8,3030.6 696.7,71.6 1374.4,77.6 2014.5,17.6 1729.9,-161.9 3325,-968.7 4491.4,-2271.6 1162.8,-1299 1797.6,-2975.1 1787.5,-4719.6 -9.7,-1680.9 -423.5,-2974.4 -1229.9,-3844.7 -6.2,-6.8 -651.4,-707.7 -1929,-1339.6 -999.9,-494.6 -2572.5,-1032.3 -4682.4,-1032.3"
         style="fill:#000072;fill-opacity:1;fill-rule:nonzero;stroke:none"
         id="path114" /><path
         d="m 18058.7,20798.2 c -370.3,0 -758,16.8 -1161.9,53.7 -507.1,46.4 -997.7,158 -1461,328.7 158,224.2 326.3,444.2 495.3,647.9 666,-193 1381.7,-292.7 2118.3,-292.6 229.2,0 460.6,9.6 692.8,29.1 1606.8,134.6 3080.5,723.5 4149.9,1658.1 1084.1,947.5 1625.2,2136.8 1523.6,3348.8 -8.9,106.2 -22.7,211.5 -41.2,315.6 53.9,386.8 77.4,776.7 79.6,1156.8 8.9,1535.5 -482.2,2971.7 -1326.7,4138.5 855.7,-683.6 1543.8,-1570.2 1993.1,-2580.6 -203.5,-56.9 -334.3,-112 -334.3,-112 584.8,-1406.4 587.8,-2954.4 480.4,-4031.4 -81.9,-824 -228.4,-1373 -228.4,-1373 v 0 0 l 141,5.8 c -174.7,-374.9 -392.7,-703.8 -653.7,-985.4 -6.2,-6.8 -637.1,-688.8 -1887.3,-1304 -977.8,-481.2 -2515.3,-1004.1 -4579.5,-1004"
         style="fill:#b2b2d4;fill-opacity:1;fill-rule:nonzero;stroke:none"
         id="path116" /><path
         d="m 18725.2,33654.7 c -358.5,0 -725.5,-19.1 -1098.4,-57.4 C 15266.6,33354.9 13566,32367.6 12572.4,30662.9 11832,29392.8 11783.2,28186 11782.9,28174 l -0.9,-12.1 c -208.3,-2002.5 141.6,-3674.2 1040.2,-4968.7 927.2,-1336 2412.4,-2189.3 4074.6,-2341.3 2655.9,-242.8 4588.2,382.8 5741.4,950.3 1250.2,615.2 1881.1,1297.2 1887.3,1304 773,834.2 1169.3,2083.3 1178.6,3713.6 20.2,3488.1 -2659.8,6472.8 -6101.1,6794.9 -285.4,26.7 -578.6,40 -877.8,40 M 18058.9,20455 c -380.8,0 -778.4,17.3 -1193.4,55.2 -1763.4,161.2 -3339.9,1067.8 -4325.3,2487.3 -945.8,1362.6 -1315.8,3110.3 -1100.1,5194.4 4.7,110.5 72.3,1334.1 835.8,2643.8 723.3,1240.7 2232.6,2786.3 5315.8,3102.9 706.2,72.6 1393.7,78.6 2043.3,17.7 1766.9,-165.4 3396,-989.3 4587.3,-2319.9 1187.1,-1326.2 1835.3,-3037.4 1825,-4818.5 -10,-1718.9 -436.9,-3045.7 -1269.1,-3943.8 -25.7,-28.3 -669.4,-727.3 -1971.7,-1371.5 C 21792,21000.8 20196.6,20455.1 18058.9,20455"
         style="fill:#000072;fill-opacity:1;fill-rule:nonzero;stroke:none"
         id="path118" /><path
         d="m 24244.7,26557.6 c 200.4,-2390.8 -2269.6,-4549.5 -5516.8,-4821.7 -3247.2,-272.1 -6042.1,1445.4 -6242.4,3836.2 -200.4,2390.7 2269.6,4549.5 5516.8,4821.6 3247.2,272.2 6042.1,-1445.3 6242.4,-3836.1"
         style="fill:#000072;fill-opacity:1;fill-rule:nonzero;stroke:none"
         id="path120" /><path
         d="m 12725.9,25144.5 c -33.7,144.9 -56.9,292.4 -69.5,441.9 -92.2,1100.6 407.6,2187.9 1407.6,3061.8 1014.6,886.7 2418.3,1445.9 3952.6,1574.5 223.3,18.7 445.1,28 665.1,28 1291.9,0 2513.6,-319.8 3494.6,-922.6 420,-258.2 776.9,-556.7 1064.5,-886.5 -1024.7,921.5 -2581.3,1490.3 -4318.8,1490.3 -222.1,0 -447.3,-9.3 -674.6,-28.4 -561.6,-47 -1099.7,-150.7 -1605,-302.1 -114.7,-34.4 -206.2,-118.3 -257.5,-226.6 -129.3,-272.9 -513.9,-631 -1026.4,-926.8 -477.2,-275.6 -945.6,-428.1 -1250.9,-428.1 -4.2,0 -8.4,0.1 -12.6,0.1 -2.1,0.1 -4.2,0.1 -6.3,0.1 -111.3,0 -219,-41.9 -294.5,-123.8 -730.1,-792.4 -1132.8,-1750.4 -1068.3,-2751.8"
         style="fill:#8080b9;fill-opacity:1;fill-rule:nonzero;stroke:none"
         id="path122" /><path
         d="m 18681.7,30250.7 c -220,0 -441.8,-9.3 -665.1,-28 -1534.3,-128.6 -2938,-687.8 -3952.6,-1574.5 -1000,-873.9 -1499.8,-1961.2 -1407.6,-3061.8 92.3,-1100.6 766.1,-2089.5 1897.5,-2784.8 1148.1,-705.6 2625.2,-1023.2 4159.7,-894.7 1534.3,128.6 2938,687.8 3952.7,1574.6 999.8,873.9 1499.7,1961.2 1407.5,3061.7 v 0.1 c -92.3,1100.5 -766.1,2089.5 -1897.5,2784.8 -981,602.8 -2202.7,922.6 -3494.6,922.6 m -632.3,-8714.8 c -1355.6,-0.1 -2640.1,337.3 -3675.1,973.3 -1226.7,753.9 -1958.2,1836.5 -2059.8,3048.6 -101.6,1212 439.5,2401.3 1523.6,3348.7 1069.4,934.7 2543.1,1523.5 4149.9,1658.1 1606.4,134.8 3157.9,-200.6 4367.9,-944.2 1226.7,-753.8 1958.2,-1836.4 2059.8,-3048.5 101.6,-1212 -439.5,-2401.3 -1523.6,-3348.8 -1069.4,-934.6 -2543.1,-1523.5 -4149.9,-1658.1 -232.2,-19.5 -463.6,-29.1 -692.8,-29.1"
         style="fill:#000072;fill-opacity:1;fill-rule:nonzero;stroke:none"
         id="path124" /><path
         d="m 26038.7,24126.9 -1000.5,-41.1 c 0,0 146.5,549 228.4,1373 107.4,1077 104.4,2625 -480.4,4031.4 0,0 449,189.2 977,228.4 0,0 89.2,11.8 218.1,-35.8 313.2,-114.7 861.8,-578.9 939.7,-2408.3 110.3,-2582.4 -377.9,-3098.5 -882.3,-3147.6"
         style="fill:#ffffff;fill-opacity:1;fill-rule:nonzero;stroke:none"
         id="path126" /><path
         d="m 25038.2,24085.8 c 0,0 146.5,549 228.4,1373 411.3,144.1 956.4,409.3 1078.9,829.4 151,517.2 -183.8,2445.6 -364.2,3394.6 313.2,-114.7 861.8,-578.9 939.7,-2408.3 10.7,-249.7 15.7,-480 15.7,-692.5 0.1,-1985.3 -442.4,-2410.8 -898,-2455.1 l -477.1,-19.6 -382.4,-15.7 -141,-5.8"
         style="fill:#b2b2d4;fill-opacity:1;fill-rule:nonzero;stroke:none"
         id="path128" /><path
         d="m 25011.2,29389.3 c 800.5,-2093.3 403.9,-4400.4 246.3,-5122.8 l 769.5,31.7 c 215.1,21.1 845.2,103.7 722.8,2969 -57.9,1355.8 -373,1907.3 -627.2,2131.2 -182.5,160.8 -334.4,150.5 -340.9,149.6 -3.2,-0.4 -2.6,-0.3 -5.8,-0.5 -310.9,-23.2 -596,-102.5 -764.7,-158.2 z m 27.2,-5475.2 c -51.9,0 -101.2,23.6 -133.9,64.3 -34.1,42.5 -45.9,98.8 -31.9,151.5 7.6,28.7 752,2897.4 -244.7,5294.4 -36.3,87.2 4.7,187.3 91.8,223.9 19.4,8.2 479.6,199.8 1027.8,241.3 51.4,5.1 304.4,16.7 581.4,-216 455.3,-382.4 712.3,-1187 763.8,-2391.7 94.8,-2220.9 -225.1,-3246.5 -1037.2,-3325.6 -3.2,-0.3 -6.4,-0.5 -9.6,-0.6 l -1000.5,-41.3 c -2.3,-0.1 -4.7,-0.2 -7,-0.2"
         style="fill:#000072;fill-opacity:1;fill-rule:nonzero;stroke:none"
         id="path130" /><path
         d="m 26205.1,24084.7 -332.5,84.6 c 808.4,3174.3 -253.4,5452.5 -264.2,5475.2 l 309.4,148.4 c 46.4,-96.7 1128.1,-2406.7 287.3,-5708.2"
         style="fill:#000072;fill-opacity:1;fill-rule:nonzero;stroke:none"
         id="path132" /><path
         d="m 20282.8,27059.3 c -144.6,-830.9 -631.9,-1390.7 -631.9,-1390.7 0,0 839.7,9.3 270.6,-731.4 -568.6,-740.2 -2149,-1914.2 -2772.1,-2049.5 -603.4,-130.9 -2078.9,-1989.7 -2499.5,-3091.6 l -0.5,-1 c -10.7,-27.5 -20.5,-54.4 -29.4,-80.9 -2.9,-7.8 -5.3,-15.7 -7.8,-23 0,0 262.8,-1486.3 -374,-1878.5 -119.1,-73.5 -264.2,-90.2 -400.5,-58.8 -8.8,2 -126,19.1 -144.6,22.1 15.2,-3.5 24,-5.9 28.9,-7.4 -10.3,2 -32.3,6.9 -38.7,8.8 1.4,0 3.9,-0.4 7.3,-0.9 -787.2,185.3 -3023,927.9 -3141.6,3395.5 -144.6,2998.1 4370.1,4695.6 4370.1,4695.6 0,0 1607.3,1607.4 3323,1805.9 0,0 123.5,68.6 300,137.3 350.5,136.2 910.3,271 1126.5,-137.3 l 0.5,0.5 c 7.3,1.5 84.8,22.1 183.3,24 42.6,1.5 89.2,-1 135.8,-10.3 103.9,-20.1 206.3,-73 264.7,-192.1 47,-96.1 64.7,-235.3 29.9,-436.3"
         style="fill:#ffffff;fill-opacity:1;fill-rule:nonzero;stroke:none"
         id="path134" /><path
         d="m 14703.2,19065.8 c 0,0 0,0 -0.2,0.1 0.1,0.1 0.2,0.1 0.2,0.2 0,-0.1 0,-0.2 0,-0.3 m -86,594.8 c -3.1,19.9 -5,30.6 -5,30.6 2.5,7.3 4.9,15.2 7.8,23 8.9,26.5 18.7,53.4 29.4,80.9 l 0.5,1 c 20,52.4 42.5,106.5 67,162.1 14.5,-7.1 29,-14.1 43.6,-21.1 -54.6,-82.7 -102.1,-177.3 -143.3,-276.5"
         style="fill:#b2b2d4;fill-opacity:1;fill-rule:nonzero;stroke:none"
         id="path136" /><path
         d="m 14703,19065.9 c -1.9,1.2 -15.7,9.6 -37.8,25.8 -5,267.6 -35.8,490.1 -48,568.9 41.2,99.2 88.7,193.8 143.3,276.5 14.9,-7 29.9,-14.1 44.8,-21 -71.5,-271.5 -109.6,-555.9 -102.1,-850 0,-0.1 -0.1,-0.1 -0.2,-0.2"
         style="fill:#7c7cb6;fill-opacity:1;fill-rule:nonzero;stroke:none"
         id="path138" /><path
         d="m 14910.2,20245.9 c -14.3,6.8 -28.6,13.7 -42.9,20.6 67.8,128.2 144,260.9 226.3,395.3 -68.4,-134.3 -130.2,-273 -183.4,-415.9"
         style="fill:#7c7cb6;fill-opacity:1;fill-rule:nonzero;stroke:none"
         id="path140" /><path
         d="m 14805.3,19916.1 c -14.9,6.9 -29.9,14 -44.8,21 -14.6,7 -29.1,14 -43.6,21.1 43.7,98.7 94.2,201.9 150.4,308.3 14.3,-6.9 28.6,-13.8 42.9,-20.6 -40.1,-107.7 -75.4,-217.7 -104.9,-329.8"
         style="fill:#000072;fill-opacity:1;fill-rule:nonzero;stroke:none"
         id="path142" /><path
         d="m 16187.8,22113.4 c -2.7,0.7 -5.4,1.4 -8.1,2.1 379,418 738.5,722.1 969.7,772.2 14.4,3.1 29.3,6.8 44.6,11 l -44.5,-56.1 c 0,0 -31.5,2.5 -87.1,10.5 -133.3,-94.1 -483.5,-353.3 -874.6,-739.7 m 3930.8,3275 c -19.8,275.6 -438.1,280.2 -466.2,280.2 -1,0 -1.5,0 -1.5,0 0,0 216.6,248.8 403.8,660.9 -84.2,-208.9 -196.4,-431.7 -345.9,-647.5 0,0 444.7,-13.5 409.8,-293.6 m -5251.2,459 c 0.9,6.7 1.8,13.4 2.6,20.1 0,0 1.5,-6 4.5,-17.2 -2.3,-1 -4.6,-1.9 -7.1,-2.9 m 5432.8,1442.6 c -0.1,2.4 -0.2,4.7 -0.3,7 0.4,1 0.8,1.9 1.2,2.9 0,0 -0.3,-3.4 -0.9,-9.9"
         style="fill:#000072;fill-opacity:1;fill-rule:nonzero;stroke:none"
         id="path144" /><path
         d="m 16089.2,22014 c 30.3,34.5 60.4,68.4 90.5,101.5 2.7,-0.7 5.4,-1.4 8.1,-2.1 -32.5,-32.2 -65.5,-65.4 -98.6,-99.4"
         style="fill:#000072;fill-opacity:1;fill-rule:nonzero;stroke:none"
         id="path146" /><path
         d="m 14665.2,19091.7 c -210.1,153.8 -1174.9,1006 107.9,2937.8 140.1,211 290.1,393 448.3,553.3 331.3,335.9 370.4,860.3 83.3,1234.8 -341.5,445.4 -558.2,1092 -437.3,2029.8 2.5,1 4.8,1.9 7.1,2.9 14.5,-55.2 65.6,-237.8 162.5,-474.8 342.5,-837.5 1135.2,-1313.3 1953.9,-1313.2 438.1,0 883.8,136.4 1271.5,426.5 727.2,544.2 1436.1,1352.3 2037.5,2808.2 0.1,-2.3 0.2,-4.6 0.3,-7 -6.2,-67.8 -50.4,-476.4 -245.5,-960.5 -187.2,-412.1 -403.8,-660.9 -403.8,-660.9 0,0 0.5,0 1.5,0 28.1,0 446.4,-4.6 466.2,-280.2 0,-0.2 0,-0.4 -0.1,-0.5 -34.9,-275.6 -912.2,-1537.9 -2889.8,-2445.4 l -34.7,-43.8 c -15.3,-4.2 -30.2,-7.9 -44.6,-11 -231.2,-50.1 -590.7,-354.2 -969.7,-772.2 -30.1,-33.1 -60.2,-67 -90.5,-101.5 -352.3,-361.8 -725.3,-821.3 -995.6,-1352.2 -82.3,-134.4 -158.5,-267.1 -226.3,-395.3 -56.2,-106.4 -106.7,-209.6 -150.4,-308.3 -24.5,-55.6 -47,-109.7 -67,-162.1 l -0.5,-1 c -10.7,-27.5 -20.5,-54.4 -29.4,-80.9 -2.9,-7.8 -5.3,-15.7 -7.8,-23 0,0 1.9,-10.7 5,-30.6 12.2,-78.8 43,-301.3 48,-568.9"
         style="fill:#b2b2d4;fill-opacity:1;fill-rule:nonzero;stroke:none"
         id="path148" /><path
         d="m 16702.4,25458.8 c 3007.8,1416.7 1539.7,2214.7 1539.7,2214.7 0,0 123.5,68.6 300,137.3 231.9,-129.4 476.2,-313.3 438,-791.8 -85.3,-1070.1 -2212.5,-1547.9 -2277.7,-1560.2"
         style="fill:#b2b2d4;fill-opacity:1;fill-rule:nonzero;stroke:none"
         id="path150" /><path
         d="m 18568.1,25543.1 c 1503.4,1206.9 1100.5,2130.4 1100.5,2130.4 l 0.5,0.5 c 7.3,1.5 84.8,22.1 183.3,24 7.5,0.3 15.1,0.4 22.8,0.4 36.2,0 74.6,-3 113,-10.7 103.9,-20.1 206.3,-73 264.7,-192.1 -453.9,-1530.9 -1646.1,-1939.7 -1684.8,-1952.5"
         style="fill:#b2b2d4;fill-opacity:1;fill-rule:nonzero;stroke:none"
         id="path152" /><path
         d="m 13888.8,17362.8 c -71.5,15.1 -132.1,30.8 -196.6,48.5 -63.5,17.5 -126.2,36.3 -188.6,56.1 -124.6,39.7 -247.5,83.9 -368.9,132.2 -242.5,96.5 -478.7,209.5 -706.1,339.6 -453.6,260.5 -874.6,591.7 -1213.4,1001.5 -340,407.7 -590.6,894.1 -722.9,1409.3 -33,128.7 -59,258.9 -79.8,389.8 -18.7,131.1 -33.6,262.7 -40.2,394.6 -6.4,133.1 -7.6,268.5 3.7,402.3 9.1,134.1 28.3,267.5 55.7,398.9 108.4,527.4 353.7,1014.4 665.3,1436.7 312.5,423.9 687.7,790.9 1089.4,1117.1 402.7,326.1 833.6,611.7 1279.8,867.5 223.3,127.8 450.5,248.1 681.6,360.7 232.4,112.7 462.9,217.8 709.6,314 l -62.2,-40.1 c 122.1,119 242.1,224.8 367.5,331.2 125,105.3 252.6,207.1 382.9,305.4 260.4,196.9 532.4,379.3 815.9,544.5 283.9,164.4 580.1,310.6 890.2,428.5 155.1,58.7 314,108.8 475.5,151.7 162.2,40.9 327.5,72.1 494.9,93 l -64.5,-20.8 c 67.1,36.4 126.8,64.5 191.3,93.2 63.6,28.1 128.1,54.2 194,78 131.8,47.3 268.5,86.3 414.1,108 145.1,20.3 302.2,26.6 466,-22.2 81.1,-24.2 162.7,-65.2 232.5,-122.7 70.4,-57 125.8,-129.8 166,-205.1 l -200.2,85.4 c 24.4,6.5 38.8,9.5 57.3,13.2 17.6,3.4 35,6.3 52.5,8.8 35,4.9 70.3,8 106.3,9.4 71.9,2.2 147.1,-2.7 225,-23.3 77.3,-19.3 158.6,-58.5 226.3,-118.4 68.5,-59.5 115.9,-139.5 143.3,-216.6 27.3,-77.5 38.9,-154.2 40.5,-225.4 2,-71.7 -2.6,-140.5 -12.4,-206 l -7.3,-49.2 -8.9,-46.2 -18.5,-91.9 c -14.7,-60.7 -28.6,-121.5 -46.6,-181.2 -68.1,-239.9 -165.8,-469.5 -284.5,-686.8 -59.7,-108.6 -124.6,-214.2 -196.8,-316.3 l -27.3,-38.2 -14.1,-19 -7,-9.5 -2.8,-3.8 c 2.6,3.3 5,6.8 7,10.5 18.8,30.2 22.1,73 9.1,105.6 -11.9,33.1 -41.7,61.8 -76.6,72.9 l -12.6,3.4 -6.3,1.1 c -1.8,0.3 -5.4,0.6 -2.9,0.3 l 13,-1.7 26.1,-3.7 c 17.4,-2.8 34.9,-6 52.4,-9.7 35.2,-7.5 70.7,-17.1 106.8,-29.9 71.4,-25.7 148.9,-63.6 216.9,-135.1 33.5,-35.4 62.8,-79.5 82,-127.6 19.8,-48.1 28.1,-98.7 29.2,-145.2 2.3,-94.7 -21.7,-172.2 -48.8,-240.6 -27.9,-68.2 -61.5,-128.5 -97.5,-184.3 -72.8,-111.9 -152.2,-206.4 -233.4,-299.1 -81.4,-92.2 -165.9,-179.5 -252.4,-264.1 -346.1,-337.4 -717,-639.2 -1104.5,-920.9 -194.5,-139.9 -393.2,-274.4 -600.5,-399 -104.3,-61.5 -210.4,-120.9 -320.7,-176 -110.6,-54.9 -224.1,-106.4 -351.8,-146.3 -29.9,-10.5 -69,-18.4 -98,-26.2 -16.6,-3.7 -36.2,-10.1 -56.7,-18.4 -41.3,-16.5 -86.1,-41.6 -130.2,-69.2 -88.8,-56 -176.4,-125.6 -261.5,-198.6 -169.8,-148.1 -332.1,-312.3 -488.1,-482.5 -310.3,-342.6 -600,-708.8 -864.2,-1091.1 -130.6,-192.2 -258.9,-385.5 -387.4,-579.4 -129.5,-194 -255.4,-388.3 -382.5,-593.2 10.3,121 39.3,238.9 73.8,354.5 35.8,115 77.6,228.4 126.5,338 97.1,219.8 216,428.2 345.4,628.8 257.8,402.1 539.6,788 854.3,1150.7 157.7,181.2 322.2,357.7 506.6,520.6 92.7,81.3 188.8,160.2 298.5,231.4 55.2,35.4 113,69.4 180.6,97.9 33.9,14.2 70.1,27.1 110.9,36.8 27.8,8 46.8,11 72.5,20.3 96.9,31.4 198.6,77.9 298.1,129 99.9,51.4 198.9,108.1 296.8,167.5 196.2,118.8 388.4,247.9 576.3,383.3 374.6,271.9 736.5,566.7 1065.3,887.2 82,80.1 161.3,162.3 235.9,246.6 74.1,84.3 146,171.2 201.6,257 28,43.1 51.3,86.5 68,127.3 16.6,40.4 25.5,78.9 23.9,102.6 -1,25 -5.2,31.5 -17.9,46.9 -12.9,14.8 -42.9,33.5 -82,47 -19.4,6.9 -40.8,12.8 -63.2,17.6 -11.2,2.4 -22.7,4.5 -34.4,6.4 l -17.7,2.5 -8.9,1.2 -8.3,1.2 -11.7,2.2 c -7.7,1.4 -15.5,3.5 -23.3,6.2 -63.2,19.6 -116,71.2 -138.3,131.8 -23.9,60.1 -17.4,135.1 16.4,190.6 4.1,6.8 8.5,13.4 13.1,19.8 l 3.7,5 6.1,8.3 12.2,16.5 24.1,33.6 c 63.7,90.4 122.3,185.9 176,283.7 106.8,196.1 194.5,402.9 254.8,616.5 58.8,210.2 110.5,449.5 59.6,588.3 -25.1,66.4 -59.3,96.5 -132.9,117.8 -36.1,9.7 -79.6,13.5 -125.3,11.9 -22.9,-0.9 -46.3,-2.9 -69.7,-6.2 -11.6,-1.7 -23.3,-3.6 -34.6,-5.9 -10.3,-1.8 -24.7,-5.3 -28.8,-6.4 l -3.3,-0.8 c -79.2,-20.4 -159.7,17.2 -196.8,86.1 -43.7,81.1 -104.5,131.3 -193.8,158.5 -88.9,27.4 -201.2,27.4 -314.9,10.5 -114.3,-17 -231.5,-49.9 -346.7,-91.4 -57.7,-20.9 -114.9,-44.1 -171.4,-69.1 -55.4,-24.5 -114.4,-53 -162.7,-79.2 -20.4,-11.1 -42.8,-18 -64.6,-20.8 -150.2,-19.1 -299.9,-47.2 -448.2,-84.8 -147.9,-39.5 -294.5,-85.8 -438.8,-140.5 -288.6,-110.1 -568.3,-248.1 -838.2,-404.8 -269.6,-157.5 -530.3,-332.5 -780.4,-521.9 -125.1,-94.7 -247.8,-192.7 -367.6,-293.8 -118.7,-100.7 -238.6,-207.2 -345.6,-311.7 -18.2,-17.8 -40.1,-31.4 -62.3,-40.2 -225.1,-88 -455.9,-192.9 -678.9,-301.5 -224.1,-109.5 -444.5,-226.5 -660.7,-350.5 -432,-248.2 -847.7,-524.6 -1232.1,-836.5 -383.6,-311.9 -737.3,-660.1 -1026,-1052.6 -288.3,-391.4 -506.9,-831.7 -602.3,-1298.7 -24.3,-116.5 -41.2,-234.3 -49,-352.9 -9.9,-118.6 -8.6,-236.9 -2.9,-356.6 6.4,-121.1 19.3,-241.4 36,-361 18.7,-119.2 42,-237.6 71.5,-354.2 118.8,-466.5 341.9,-902.9 649.5,-1274.1 306.3,-372.9 692.7,-680 1115.7,-924.4 211.9,-122.1 433.4,-228.8 661.1,-320.1 113.8,-45.7 229.2,-87.5 345.7,-125 58.3,-18.7 116.8,-36.4 175.3,-52.7 57.6,-16.1 119.6,-31.9 172,-43.1 l -67,-336.6"
         style="fill:#000072;fill-opacity:1;fill-rule:nonzero;stroke:none"
         id="path154" /><path
         d="m 17122.3,22718.3 c -921.8,148.2 -1594.9,528.4 -2000.6,1130 -620.2,919.7 -380.3,2011.4 -369.8,2057.4 l 334.5,-76.5 -167.2,38.3 167.3,-38 c -2.2,-9.9 -216.2,-997.7 321.5,-1792 350.8,-518.3 945.9,-848.2 1768.7,-980.4 l -54.4,-338.8"
         style="fill:#000072;fill-opacity:1;fill-rule:nonzero;stroke:none"
         id="path156" /><path
         d="m 18322.7,27824.8 c 24.2,-12.6 39.8,-21.3 58.1,-32.4 17.8,-10.4 34.6,-21.6 51.8,-32.7 33.5,-23.1 67,-46.5 98.2,-74.2 62.9,-54.2 123.4,-116.7 173.3,-195.3 49.2,-77.9 88,-174.7 95.3,-280.1 3.6,-27.2 1.1,-49.5 0,-73.3 -1.3,-23.6 -3.3,-47.2 -5.4,-70.7 -8.7,-43 -18.3,-85.9 -29.1,-127.7 -48.9,-162.1 -128.2,-297 -216.4,-422 -87.3,-126.1 -189,-236.2 -295.6,-339.9 -109.3,-100.2 -222.4,-195.1 -342.5,-278.6 -60.7,-41.1 -120.7,-82.9 -184.2,-118.6 -62.7,-37.2 -124.9,-74.9 -190.1,-106.6 -254.2,-136.4 -530.9,-244 -835.1,-214.6 225.4,204.2 462.5,320.3 691,463.2 57.6,34.4 111.5,74.2 165.6,113.2 55.3,37.4 106,80.6 157.6,122.2 104.2,82 199.7,173 290.7,266.7 85.9,97.4 173.5,193.9 240.8,300.4 67.8,104.8 129.7,214.8 160.5,320.9 l 17.1,76.1 c 0.3,11.3 0.8,22.5 2.1,33.6 0.9,11 3.6,23.5 1.5,31 -1.3,34 -13,71.5 -37,111.8 -23.4,40.2 -57.6,82 -98.5,120.6 -20.2,19.4 -42.3,38.3 -64.8,56.6 -11.5,8.7 -23,17.9 -34.7,26 -10.8,8.1 -25.2,17.2 -31.4,21.5 l 161.2,302.9"
         style="fill:#000072;fill-opacity:1;fill-rule:nonzero;stroke:none"
         id="path158" /><path
         d="m 19823.4,27747.7 8.2,-17.4 5.7,-13.2 10.1,-25 c 6.2,-16.5 10.7,-31.7 15.9,-47.6 10.9,-31.9 16.3,-62.2 23.7,-93.6 10.8,-62.1 19.7,-124.1 20,-185.5 l 1.5,-46.3 -2.2,-45.6 -5.6,-91.1 c -9,-59.4 -18,-119.4 -31.8,-177.2 -55.2,-232.3 -159.4,-444.6 -290.3,-629.2 l -47.7,-70.4 c -16.3,-23.1 -35,-44.1 -52.3,-66.1 -35.2,-43.7 -70.7,-87.1 -107,-129.6 -36.9,-41.8 -77.6,-79.6 -116.1,-119.4 -39.5,-38.7 -76.9,-79.7 -118,-116.2 -82.9,-71.8 -167.2,-142.8 -261.4,-199.8 -96.9,-53.7 -196.9,-102.6 -308.9,-132.1 50.4,107.4 112.8,195.3 178.4,278.3 63.8,84.7 128.1,165.9 199,240.4 34.2,38.3 63.9,80.1 95.9,119.8 30.9,40.6 64.2,79.3 92.9,120.9 52.9,85.9 118.2,163.8 162.2,252.6 23.1,43.5 50.8,85.2 70.2,129.9 l 61.6,132 c 17,44.8 31.8,90.1 48.1,134.9 15.7,44.8 24.5,90.7 37.6,135.7 10.6,45.4 14.9,91.2 23.6,136.4 l 5.1,67.7 2.7,33.9 -0.7,33.4 c 0.6,44.9 -2.6,88.5 -7.7,131.5 -4.4,20.2 -5.8,42.9 -10.9,61.8 l -6.6,28.7 c -1.9,6.6 -6.1,20.9 -4.5,18.8 l 309.3,148.6"
         style="fill:#000072;fill-opacity:1;fill-rule:nonzero;stroke:none"
         id="path160" /><path
         d="m 19852.1,25647.5 c -29.4,-46 -62.1,-80.2 -98.6,-115.6 -36.7,-34.1 -75.7,-66.1 -118.5,-94.5 -42.4,-28.7 -87,-55.2 -137.4,-74 -50.5,-18.2 -104.3,-32.7 -162.9,-28.7 18.2,55.9 35.6,101.1 53,145.8 17.1,44.7 36,85.8 55.3,126.2 18.5,41.1 38,81 58,120.2 20,38 42.3,78.5 64.6,109.4 l 286.5,-188.8"
         style="fill:#000072;fill-opacity:1;fill-rule:nonzero;stroke:none"
         id="path162" /><path
         d="m 8860.59,8749 c 0,-60.4 -123.82,-113.1 -308.75,-142.1 -93.37,-14.6 -166.92,-88.2 -181.56,-181.5 -28.99,-185 -81.68,-308.8 -142.07,-308.8 -60.4,0 -113.07,123.8 -142.07,308.8 -14.65,93.3 -88.19,166.9 -181.57,181.5 -185.08,29 -309.19,81.7 -309.19,142.1 0,60.7 124.01,113.5 308.96,142.3 93.49,14.5 167.16,88.1 181.8,181.6 29.01,185.1 81.68,308.9 142.07,308.9 60.39,0 113.07,-123.8 142.07,-308.9 14.64,-93.5 88.3,-167.1 181.79,-181.6 184.81,-28.8 308.52,-81.6 308.52,-142.3"
         style="fill:#ffffff;fill-opacity:1;fill-rule:nonzero;stroke:none"
         id="path164" /><path
         d="m 34950.3,17298.6 c 7.2,-55.7 -100.9,-119 -268.1,-167.6 -84.4,-24.5 -143.6,-101.1 -146,-189 -4.9,-174.1 -38.9,-294.6 -94.6,-301.7 -55.8,-7.2 -119,100.9 -167.7,268.1 -24.5,84.4 -101.1,143.6 -189,146 -174.2,4.9 -295,38.8 -302.1,94.6 -7.2,56 101,119.3 268.3,167.8 84.5,24.5 143.8,101.1 146.2,189.1 4.9,174.3 38.9,294.8 94.6,301.9 55.7,7.2 119,-100.9 167.6,-268.3 24.6,-84.5 101.3,-143.7 189.3,-146.1 173.9,-4.7 294.3,-38.7 301.5,-94.8"
         style="fill:#ffffff;fill-opacity:1;fill-rule:nonzero;stroke:none"
         id="path166" /><path
         d="m 29370.6,34439.5 c 0,-66.9 -137.1,-125.2 -341.9,-157.4 -103.5,-16.2 -184.9,-97.6 -201.1,-201 -32.1,-204.8 -90.5,-342 -157.4,-342 -66.9,0 -125.2,137.2 -157.3,342 -16.2,103.4 -97.7,184.8 -201.1,201 -205,32.2 -342.5,90.5 -342.5,157.4 0,67.3 137.4,125.7 342.2,157.6 103.6,16.1 185.2,97.6 201.4,201.2 32.1,205 90.4,342.1 157.3,342.1 66.9,0 125.2,-137.1 157.4,-342.2 16.2,-103.5 97.8,-185 201.3,-201.1 204.7,-31.9 341.7,-90.3 341.7,-157.6"
         style="fill:#ffffff;fill-opacity:1;fill-rule:nonzero;stroke:none"
         id="path168" /><path
         d="m 34642.3,28641.1 c 0,-99.6 -80.7,-180.3 -180.3,-180.3 -99.6,0 -180.3,80.7 -180.3,180.3 0,99.6 80.7,180.3 180.3,180.3 99.6,0 180.3,-80.7 180.3,-180.3"
         style="fill:#ffffff;fill-opacity:1;fill-rule:nonzero;stroke:none"
         id="path170" /><path
         d="m 31861.7,13332.6 c -21.8,-116.1 -133.5,-192.6 -249.6,-170.8 -116,21.7 -192.5,133.4 -170.8,249.5 21.8,116.1 133.5,192.5 249.6,170.8 116,-21.7 192.5,-133.4 170.8,-249.5"
         style="fill:#ffffff;fill-opacity:1;fill-rule:nonzero;stroke:none"
         id="path172" /><path
         d="m 8425.36,28819.5 c -12.36,-120.7 -121.75,-208.5 -244.32,-195.9 -122.57,12.5 -211.92,120.6 -199.56,241.4 12.37,120.7 121.75,208.4 244.32,195.9 122.58,-12.6 211.91,-120.6 199.56,-241.4"
         style="fill:#ffffff;fill-opacity:1;fill-rule:nonzero;stroke:none"
         id="path174" /><path
         d="m 31690,31260 c 0,-99.6 -80.7,-180.3 -180.3,-180.3 -99.6,0 -180.3,80.7 -180.3,180.3 0,99.6 80.7,180.4 180.3,180.4 99.6,0 180.3,-80.8 180.3,-180.4"
         style="fill:#ffffff;fill-opacity:1;fill-rule:nonzero;stroke:none"
         id="path176" /><path
         d="m 6028.55,32700.9 c -12.36,-120.8 -121.74,-208.5 -244.31,-196 -122.58,12.6 -211.92,120.7 -199.56,241.4 12.36,120.8 121.75,208.5 244.31,195.9 122.58,-12.5 211.93,-120.6 199.56,-241.3"
         style="fill:#ffffff;fill-opacity:1;fill-rule:nonzero;stroke:none"
         id="path178" /><path
         d="m 5362.23,11599.2 c 0,-111.9 -90.68,-202.6 -202.53,-202.6 -111.87,0 -202.54,90.7 -202.54,202.6 0,111.8 90.67,202.5 202.54,202.5 111.85,0 202.53,-90.7 202.53,-202.5"
         style="fill:#ffffff;fill-opacity:1;fill-rule:nonzero;stroke:none"
         id="path180" /><path
         d="m 31079.6,20584.1 c 0,-85.3 -69.1,-154.4 -154.4,-154.4 -85.2,0 -154.4,69.1 -154.4,154.4 0,85.3 69.2,154.4 154.4,154.4 85.3,0 154.4,-69.1 154.4,-154.4"
         style="fill:#ffffff;fill-opacity:1;fill-rule:nonzero;stroke:none"
         id="path182" /><path
         d="m 33274.2,7788.7 c -11.2,-59.6 -68.6,-99 -128.3,-87.8 -59.7,11.2 -99,68.6 -87.9,128.3 11.2,59.7 68.7,99 128.4,87.9 59.7,-11.2 99,-68.7 87.8,-128.4"
         style="fill:#ffffff;fill-opacity:1;fill-rule:nonzero;stroke:none"
         id="path184" /><path
         d="m 10270.3,34277.3 c -6.4,-62.1 -62.6,-107.2 -125.7,-100.8 -63,6.5 -109,62.1 -102.6,124.2 6.4,62.1 62.6,107.2 125.6,100.7 63.1,-6.4 109,-62 102.7,-124.1"
         style="fill:#ffffff;fill-opacity:1;fill-rule:nonzero;stroke:none"
         id="path186" /><path
         d="m 4325.47,25026 c -6.36,-62.1 -62.61,-107.3 -125.65,-100.8 -63.03,6.5 -108.98,62 -102.62,124.1 6.35,62.1 62.6,107.2 125.64,100.8 63.04,-6.5 108.99,-62 102.63,-124.1"
         style="fill:#ffffff;fill-opacity:1;fill-rule:nonzero;stroke:none"
         id="path188" /><path
         d="m 7705.85,14580.4 c 0,-57.5 -46.63,-104.2 -104.16,-104.2 -57.53,0 -104.16,46.7 -104.16,104.2 0,57.5 46.63,104.2 104.16,104.2 57.53,0 104.16,-46.7 104.16,-104.2"
         style="fill:#ffffff;fill-opacity:1;fill-rule:nonzero;stroke:none"
         id="path190" /><path
         d="m 35698.1,11372.3 c -11.2,-59.7 -68.6,-99 -128.3,-87.8 -59.7,11.2 -99,68.6 -87.9,128.3 11.2,59.7 68.7,99 128.4,87.8 59.7,-11.1 99,-68.6 87.8,-128.3"
         style="fill:#ffffff;fill-opacity:1;fill-rule:nonzero;stroke:none"
         id="path192" /><path
         d="m 7016.59,21516.7 c -11.71,-114.3 -115.32,-197.4 -231.43,-185.5 -116.11,11.8 -200.74,114.2 -189.03,228.6 11.71,114.4 115.33,197.5 231.43,185.6 116.11,-11.9 200.74,-114.3 189.03,-228.7"
         style="fill:#ffffff;fill-opacity:1;fill-rule:nonzero;stroke:none"
         id="path194" /></g></g></svg>
