<?xml version="1.0" encoding="UTF-8" standalone="no"?>
<svg
   xmlns:dc="http://purl.org/dc/elements/1.1/"
   xmlns:cc="http://creativecommons.org/ns#"
   xmlns:rdf="http://www.w3.org/1999/02/22-rdf-syntax-ns#"
   xmlns:svg="http://www.w3.org/2000/svg"
   xmlns="http://www.w3.org/2000/svg"
   xmlns:sodipodi="http://sodipodi.sourceforge.net/DTD/sodipodi-0.dtd"
   xmlns:inkscape="http://www.inkscape.org/namespaces/inkscape"
   version="1.1"
   id="svg2"
   xml:space="preserve"
   width="155.757"
   height="155.75705"
   viewBox="0 0 155.757 155.75705"
   sodipodi:docname="star.svg"
   inkscape:version="0.92.3 (2405546, 2018-03-11)"><metadata
     id="metadata8"><rdf:RDF><cc:Work
         rdf:about=""><dc:format>image/svg+xml</dc:format><dc:type
           rdf:resource="http://purl.org/dc/dcmitype/StillImage" /><dc:title></dc:title></cc:Work></rdf:RDF></metadata><defs
     id="defs6" /><sodipodi:namedview
     pagecolor="#ffffff"
     bordercolor="#666666"
     borderopacity="1"
     objecttolerance="10"
     gridtolerance="10"
     guidetolerance="10"
     inkscape:pageopacity="0"
     inkscape:pageshadow="2"
     inkscape:window-width="1280"
     inkscape:window-height="1001"
     id="namedview4"
     showgrid="false"
     fit-margin-top="0"
     fit-margin-left="0"
     fit-margin-right="0"
     fit-margin-bottom="0"
     inkscape:zoom="0.156"
     inkscape:cx="-1837.6614"
     inkscape:cy="448.00516"
     inkscape:window-x="1352"
     inkscape:window-y="-8"
     inkscape:window-maximized="1"
     inkscape:current-layer="g10" /><g
     id="g10"
     inkscape:groupmode="layer"
     inkscape:label="ink_ext_XXXXXX"
     transform="matrix(1.3333333,0,0,-1.3333333,-4504.3281,2374.4185)"><g
       id="g12"
       transform="scale(0.1)">
<path
   d="m 34950.3,17298.6 c 7.2,-55.7 -100.9,-119 -268.1,-167.6 -84.4,-24.5 -143.6,-101.1 -146,-189 -4.9,-174.1 -38.9,-294.6 -94.6,-301.7 -55.8,-7.2 -119,100.9 -167.7,268.1 -24.5,84.4 -101.1,143.6 -189,146 -174.2,4.9 -295,38.8 -302.1,94.6 -7.2,56 101,119.3 268.3,167.8 84.5,24.5 143.8,101.1 146.2,189.1 4.9,174.3 38.9,294.8 94.6,301.9 55.7,7.2 119,-100.9 167.6,-268.3 24.6,-84.5 101.3,-143.7 189.3,-146.1 173.9,-4.7 294.3,-38.7 301.5,-94.8"
   style="fill:#ffffff;fill-opacity:1;fill-rule:nonzero;stroke:none"
   id="path166"
   inkscape:connector-curvature="0" /></g></g></svg>