<?xml version="1.0" encoding="UTF-8" standalone="no"?>
<svg
   xmlns:dc="http://purl.org/dc/elements/1.1/"
   xmlns:cc="http://creativecommons.org/ns#"
   xmlns:rdf="http://www.w3.org/1999/02/22-rdf-syntax-ns#"
   xmlns:svg="http://www.w3.org/2000/svg"
   xmlns="http://www.w3.org/2000/svg"
   xmlns:sodipodi="http://sodipodi.sourceforge.net/DTD/sodipodi-0.dtd"
   xmlns:inkscape="http://www.inkscape.org/namespaces/inkscape"
   version="1.1"
   id="svg2"
   xml:space="preserve"
   width="4213.7856"
   height="3658.8535"
   viewBox="0 0 4213.7856 3658.8535"
   sodipodi:docname="stars.svg"
   inkscape:version="0.92.3 (2405546, 2018-03-11)"><metadata
     id="metadata8"><rdf:RDF><cc:Work
         rdf:about=""><dc:format>image/svg+xml</dc:format><dc:type
           rdf:resource="http://purl.org/dc/dcmitype/StillImage" /><dc:title></dc:title></cc:Work></rdf:RDF></metadata><defs
     id="defs6" /><sodipodi:namedview
     pagecolor="#ffffff"
     bordercolor="#666666"
     borderopacity="1"
     objecttolerance="10"
     gridtolerance="10"
     guidetolerance="10"
     inkscape:pageopacity="0"
     inkscape:pageshadow="2"
     inkscape:window-width="1280"
     inkscape:window-height="1001"
     id="namedview4"
     showgrid="false"
     fit-margin-top="0"
     fit-margin-left="0"
     fit-margin-right="0"
     fit-margin-bottom="0"
     inkscape:zoom="0.156"
     inkscape:cx="2120.4518"
     inkscape:cy="1640.1336"
     inkscape:window-x="1352"
     inkscape:window-y="-8"
     inkscape:window-maximized="1"
     inkscape:current-layer="g10" /><g
     id="g10"
     inkscape:groupmode="layer"
     inkscape:label="ink_ext_XXXXXX"
     transform="matrix(1.3333333,0,0,-1.3333333,-546.2149,4685.3865)"><g
       id="g12"
       transform="scale(0.1)">
<path
   d="m 8860.59,8749 c 0,-60.4 -123.82,-113.1 -308.75,-142.1 -93.37,-14.6 -166.92,-88.2 -181.56,-181.5 -28.99,-185 -81.68,-308.8 -142.07,-308.8 -60.4,0 -113.07,123.8 -142.07,308.8 -14.65,93.3 -88.19,166.9 -181.57,181.5 -185.08,29 -309.19,81.7 -309.19,142.1 0,60.7 124.01,113.5 308.96,142.3 93.49,14.5 167.16,88.1 181.8,181.6 29.01,185.1 81.68,308.9 142.07,308.9 60.39,0 113.07,-123.8 142.07,-308.9 14.64,-93.5 88.3,-167.1 181.79,-181.6 184.81,-28.8 308.52,-81.6 308.52,-142.3"
   style="fill:#ffffff;fill-opacity:1;fill-rule:nonzero;stroke:none"
   id="path164"
   inkscape:connector-curvature="0" /><path
   d="m 34950.3,17298.6 c 7.2,-55.7 -100.9,-119 -268.1,-167.6 -84.4,-24.5 -143.6,-101.1 -146,-189 -4.9,-174.1 -38.9,-294.6 -94.6,-301.7 -55.8,-7.2 -119,100.9 -167.7,268.1 -24.5,84.4 -101.1,143.6 -189,146 -174.2,4.9 -295,38.8 -302.1,94.6 -7.2,56 101,119.3 268.3,167.8 84.5,24.5 143.8,101.1 146.2,189.1 4.9,174.3 38.9,294.8 94.6,301.9 55.7,7.2 119,-100.9 167.6,-268.3 24.6,-84.5 101.3,-143.7 189.3,-146.1 173.9,-4.7 294.3,-38.7 301.5,-94.8"
   style="fill:#ffffff;fill-opacity:1;fill-rule:nonzero;stroke:none"
   id="path166"
   inkscape:connector-curvature="0" /><path
   d="m 29370.6,34439.5 c 0,-66.9 -137.1,-125.2 -341.9,-157.4 -103.5,-16.2 -184.9,-97.6 -201.1,-201 -32.1,-204.8 -90.5,-342 -157.4,-342 -66.9,0 -125.2,137.2 -157.3,342 -16.2,103.4 -97.7,184.8 -201.1,201 -205,32.2 -342.5,90.5 -342.5,157.4 0,67.3 137.4,125.7 342.2,157.6 103.6,16.1 185.2,97.6 201.4,201.2 32.1,205 90.4,342.1 157.3,342.1 66.9,0 125.2,-137.1 157.4,-342.2 16.2,-103.5 97.8,-185 201.3,-201.1 204.7,-31.9 341.7,-90.3 341.7,-157.6"
   style="fill:#ffffff;fill-opacity:1;fill-rule:nonzero;stroke:none"
   id="path168"
   inkscape:connector-curvature="0" /><path
   d="m 34642.3,28641.1 c 0,-99.6 -80.7,-180.3 -180.3,-180.3 -99.6,0 -180.3,80.7 -180.3,180.3 0,99.6 80.7,180.3 180.3,180.3 99.6,0 180.3,-80.7 180.3,-180.3"
   style="fill:#ffffff;fill-opacity:1;fill-rule:nonzero;stroke:none"
   id="path170"
   inkscape:connector-curvature="0" /><path
   d="m 31861.7,13332.6 c -21.8,-116.1 -133.5,-192.6 -249.6,-170.8 -116,21.7 -192.5,133.4 -170.8,249.5 21.8,116.1 133.5,192.5 249.6,170.8 116,-21.7 192.5,-133.4 170.8,-249.5"
   style="fill:#ffffff;fill-opacity:1;fill-rule:nonzero;stroke:none"
   id="path172"
   inkscape:connector-curvature="0" /><path
   d="m 8425.36,28819.5 c -12.36,-120.7 -121.75,-208.5 -244.32,-195.9 -122.57,12.5 -211.92,120.6 -199.56,241.4 12.37,120.7 121.75,208.4 244.32,195.9 122.58,-12.6 211.91,-120.6 199.56,-241.4"
   style="fill:#ffffff;fill-opacity:1;fill-rule:nonzero;stroke:none"
   id="path174"
   inkscape:connector-curvature="0" /><path
   d="m 31690,31260 c 0,-99.6 -80.7,-180.3 -180.3,-180.3 -99.6,0 -180.3,80.7 -180.3,180.3 0,99.6 80.7,180.4 180.3,180.4 99.6,0 180.3,-80.8 180.3,-180.4"
   style="fill:#ffffff;fill-opacity:1;fill-rule:nonzero;stroke:none"
   id="path176"
   inkscape:connector-curvature="0" /><path
   d="m 6028.55,32700.9 c -12.36,-120.8 -121.74,-208.5 -244.31,-196 -122.58,12.6 -211.92,120.7 -199.56,241.4 12.36,120.8 121.75,208.5 244.31,195.9 122.58,-12.5 211.93,-120.6 199.56,-241.3"
   style="fill:#ffffff;fill-opacity:1;fill-rule:nonzero;stroke:none"
   id="path178"
   inkscape:connector-curvature="0" /><path
   d="m 5362.23,11599.2 c 0,-111.9 -90.68,-202.6 -202.53,-202.6 -111.87,0 -202.54,90.7 -202.54,202.6 0,111.8 90.67,202.5 202.54,202.5 111.85,0 202.53,-90.7 202.53,-202.5"
   style="fill:#ffffff;fill-opacity:1;fill-rule:nonzero;stroke:none"
   id="path180"
   inkscape:connector-curvature="0" /><path
   d="m 31079.6,20584.1 c 0,-85.3 -69.1,-154.4 -154.4,-154.4 -85.2,0 -154.4,69.1 -154.4,154.4 0,85.3 69.2,154.4 154.4,154.4 85.3,0 154.4,-69.1 154.4,-154.4"
   style="fill:#ffffff;fill-opacity:1;fill-rule:nonzero;stroke:none"
   id="path182"
   inkscape:connector-curvature="0" /><path
   d="m 33274.2,7788.7 c -11.2,-59.6 -68.6,-99 -128.3,-87.8 -59.7,11.2 -99,68.6 -87.9,128.3 11.2,59.7 68.7,99 128.4,87.9 59.7,-11.2 99,-68.7 87.8,-128.4"
   style="fill:#ffffff;fill-opacity:1;fill-rule:nonzero;stroke:none"
   id="path184"
   inkscape:connector-curvature="0" /><path
   d="m 10270.3,34277.3 c -6.4,-62.1 -62.6,-107.2 -125.7,-100.8 -63,6.5 -109,62.1 -102.6,124.2 6.4,62.1 62.6,107.2 125.6,100.7 63.1,-6.4 109,-62 102.7,-124.1"
   style="fill:#ffffff;fill-opacity:1;fill-rule:nonzero;stroke:none"
   id="path186"
   inkscape:connector-curvature="0" /><path
   d="m 4325.47,25026 c -6.36,-62.1 -62.61,-107.3 -125.65,-100.8 -63.03,6.5 -108.98,62 -102.62,124.1 6.35,62.1 62.6,107.2 125.64,100.8 63.04,-6.5 108.99,-62 102.63,-124.1"
   style="fill:#ffffff;fill-opacity:1;fill-rule:nonzero;stroke:none"
   id="path188"
   inkscape:connector-curvature="0" /><path
   d="m 7705.85,14580.4 c 0,-57.5 -46.63,-104.2 -104.16,-104.2 -57.53,0 -104.16,46.7 -104.16,104.2 0,57.5 46.63,104.2 104.16,104.2 57.53,0 104.16,-46.7 104.16,-104.2"
   style="fill:#ffffff;fill-opacity:1;fill-rule:nonzero;stroke:none"
   id="path190"
   inkscape:connector-curvature="0" /><path
   d="m 35698.1,11372.3 c -11.2,-59.7 -68.6,-99 -128.3,-87.8 -59.7,11.2 -99,68.6 -87.9,128.3 11.2,59.7 68.7,99 128.4,87.8 59.7,-11.1 99,-68.6 87.8,-128.3"
   style="fill:#ffffff;fill-opacity:1;fill-rule:nonzero;stroke:none"
   id="path192"
   inkscape:connector-curvature="0" /><path
   d="m 7016.59,21516.7 c -11.71,-114.3 -115.32,-197.4 -231.43,-185.5 -116.11,11.8 -200.74,114.2 -189.03,228.6 11.71,114.4 115.33,197.5 231.43,185.6 116.11,-11.9 200.74,-114.3 189.03,-228.7"
   style="fill:#ffffff;fill-opacity:1;fill-rule:nonzero;stroke:none"
   id="path194"
   inkscape:connector-curvature="0" /></g></g></svg>